<?xml version="1.0" encoding="UTF-8"?><svg id="Layer_1" xmlns="http://www.w3.org/2000/svg" viewBox="0 0 42.01 47"><defs><style>.cls-1{fill:none;}.cls-2{fill:#e7ebc0;}</style></defs><ellipse class="cls-1" cx="21" cy="26.27" rx="16.68" ry="17.42" transform="translate(-10.88 15.56) rotate(-32.78)"/><path class="cls-2" d="M4.42,19.2s-.08.05-.11.11c-.02.04-.02.08-.01.12,0,.04.03.07.05.1.03.03.07.05.11.07l.63.23-.08.22-1.03-.38.08-.22.16.06c-.05-.05-.08-.11-.09-.17-.01-.06,0-.12.02-.18.04-.11.1-.17.2-.2.09-.03.2-.02.32.03l.66.24-.08.23-.63-.23c-.08-.03-.14-.04-.19-.02Z"/><path class="cls-2" d="M6,18.99l-.1.23-.49-.51-1.05-.03.11-.25.93.06-.05.1-.66-.64.1-.23,1.22,1.26Z"/><path class="cls-2" d="M5.68,17.81s.07-.04.1-.06c.03-.02.05-.05.06-.08.02-.04.02-.07.02-.1,0-.03-.03-.05-.06-.07-.03-.01-.06-.02-.09-.01-.03,0-.06.02-.09.04-.03.02-.06.05-.1.08-.04.03-.08.06-.12.09-.04.03-.09.04-.14.05-.05,0-.11,0-.16-.04-.06-.03-.1-.07-.13-.12-.03-.05-.04-.1-.03-.16,0-.06.02-.11.05-.17.02-.05.06-.09.09-.12.04-.04.08-.06.12-.08.04-.02.09-.04.13-.04l.08.19c-.05,0-.1.03-.15.06-.05.03-.08.07-.1.11-.02.03-.02.06-.02.08,0,.03.02.05.05.06.02.01.05.01.07,0,.03,0,.05-.02.08-.04.03-.02.06-.04.09-.07.05-.04.09-.07.14-.1.05-.03.09-.04.14-.05.05,0,.1,0,.16.04.09.05.15.12.18.2.03.09.01.18-.04.28-.03.06-.07.11-.12.15s-.1.07-.15.09-.1.03-.15.04l-.07-.19s.09-.02.13-.04Z"/><path class="cls-2" d="M5.51,16.82c-.05-.08-.07-.17-.07-.25,0-.09.02-.17.07-.24.04-.07.1-.12.17-.15s.15-.04.24-.03c.09.01.19.05.29.11.1.06.18.13.23.21s.08.15.09.23c0,.08-.01.15-.05.22-.04.07-.1.13-.18.17-.08.04-.16.06-.26.05-.1,0-.19-.04-.3-.1-.11-.06-.18-.14-.23-.22ZM6.05,16.89c.06,0,.11,0,.16-.03s.08-.06.11-.11c.02-.04.04-.08.04-.13,0-.05-.01-.1-.04-.15-.03-.05-.08-.1-.14-.13-.05-.03-.1-.05-.14-.06-.04,0-.09,0-.13,0-.04,0-.07.02-.1.04-.03.02-.05.05-.07.07-.03.05-.04.1-.04.15,0,.05.01.1.04.16.03.05.08.09.14.13.06.04.12.06.18.06ZM6.41,17.15s.09.04.13.04c.05,0,.09-.01.13-.04.04-.02.08-.06.1-.11.03-.04.04-.09.04-.14,0-.05-.01-.1-.04-.16-.03-.05-.08-.1-.15-.14l-.92-.56.12-.2.92.56c.11.07.19.15.24.23.05.09.07.17.07.26,0,.09-.03.17-.08.25-.06.09-.12.16-.2.21-.07.04-.15.07-.24.06-.08,0-.17-.03-.25-.08l.12-.2Z"/><path class="cls-2" d="M6.96,16.05c-.08.04-.17.04-.27.03-.09-.01-.19-.06-.28-.12-.1-.07-.17-.14-.21-.23-.05-.09-.06-.17-.06-.26,0-.09.04-.18.1-.27.06-.08.13-.15.21-.18.08-.03.16-.04.26-.03.09.02.19.06.28.13.01,0,.02.02.03.02.01,0,.02.02.02.02l-.51.72-.14-.1.39-.55.05.12s-.01-.02-.02-.04c-.01-.01-.02-.02-.03-.03-.05-.03-.1-.05-.14-.06-.05,0-.09,0-.13.01-.04.02-.08.04-.1.08-.03.05-.05.1-.05.15,0,.05.01.1.05.15.03.05.08.1.14.15.07.05.13.08.18.09.06.01.11.01.16,0,.05-.02.09-.05.13-.1.04-.05.06-.1.06-.16,0-.06,0-.11-.04-.17l.19-.11c.05.1.07.2.06.29,0,.1-.04.19-.11.29-.06.08-.13.14-.21.18Z"/><path class="cls-2" d="M7.73,15.09l-.15.18-.86-.69.15-.18.86.69ZM7.21,14.36s-.04.02-.06.05c-.02.03-.04.06-.03.09,0,.03.01.07.04.1.02.03.06.07.1.1l-.09.03c-.07-.06-.12-.12-.15-.18-.03-.07-.05-.13-.05-.19,0-.06.01-.11.04-.15.02-.03.05-.05.08-.07.03-.02.06-.03.1-.02l.1.22s-.05.01-.07.02Z"/><path class="cls-2" d="M8.23,14.5l-.15.17-.82-.73.15-.17.82.73ZM7.74,13.74s-.04.02-.06.04c-.03.03-.04.06-.04.09s.01.07.03.1c.02.03.05.07.09.1l-.09.02c-.07-.06-.11-.12-.14-.19-.03-.07-.05-.13-.04-.19,0-.06.02-.11.05-.15.02-.03.05-.05.08-.07.03-.01.06-.02.1-.02l.09.23s-.05,0-.07.02Z"/><path class="cls-2" d="M7.45,12.91s.01-.08.04-.11c.03-.03.06-.04.11-.04.04,0,.08.02.11.05.03.03.05.07.05.11,0,.04,0,.08-.04.11-.03.03-.06.04-.11.04-.04,0-.08-.01-.11-.04-.03-.03-.05-.07-.05-.11ZM7.99,13.13l.79.77-.16.17-.79-.77.16-.17Z"/><path class="cls-2" d="M8.39,13.06c-.02-.09-.02-.18,0-.26.02-.08.07-.15.13-.21.06-.06.13-.09.21-.1.08,0,.16,0,.24.04.08.04.17.1.25.19.08.09.14.17.17.26.03.09.04.17.02.25-.02.08-.05.14-.12.2-.06.06-.14.1-.22.11-.08.02-.17.01-.26-.02-.09-.03-.18-.09-.26-.18-.08-.09-.14-.18-.16-.27ZM8.89,13.28c.06.02.11.02.16.01.05-.01.1-.04.14-.07.03-.03.06-.07.07-.12.01-.05.01-.1,0-.16-.01-.06-.05-.11-.1-.17-.04-.04-.08-.07-.12-.09-.04-.02-.08-.03-.12-.04-.04,0-.08,0-.11.01-.04.01-.06.03-.09.05-.04.04-.07.08-.08.13-.02.05-.02.1,0,.16.01.05.05.11.1.17.05.05.1.09.16.11ZM9.16,13.63s.07.06.12.07c.04.01.09.01.14,0,.05-.01.09-.04.13-.07.04-.03.06-.08.08-.12s.02-.1,0-.16c-.02-.06-.05-.12-.11-.18l-.73-.79.17-.16.73.79c.09.1.15.2.17.29.02.1.02.19,0,.27-.03.08-.08.16-.14.22-.08.07-.16.12-.25.14-.08.02-.17.02-.25,0-.08-.03-.15-.07-.22-.14l.17-.16Z"/><path class="cls-2" d="M10.68,12.9l-.96-1.32.19-.14.96,1.32-.19.14ZM11.04,11.69c.01.1,0,.18-.03.27-.03.08-.08.15-.15.2-.07.05-.14.08-.22.07-.08,0-.16-.03-.24-.08-.08-.05-.15-.12-.22-.22-.07-.1-.12-.19-.14-.28-.02-.09-.02-.17,0-.25.02-.08.07-.14.14-.19.07-.05.15-.08.23-.09.09,0,.17.01.26.05.09.04.17.11.24.21.07.1.11.2.13.29ZM10.56,11.41c-.05-.03-.11-.04-.16-.03-.05,0-.1.03-.14.06-.04.03-.06.06-.08.11s-.02.1-.02.16c0,.06.03.12.08.18.04.06.09.1.15.13.05.03.1.04.16.03.05,0,.09-.02.13-.05.04-.03.08-.07.1-.12s.03-.1.02-.16c0-.06-.03-.12-.08-.18-.04-.06-.09-.1-.14-.13Z"/><path class="cls-2" d="M10.71,10.14c.02-.07.05-.12.11-.15.05-.04.11-.04.18-.03.07.01.12.05.16.12.04.06.05.13.04.19-.02.07-.05.12-.1.15-.05.03-.11.04-.18.03-.07-.01-.12-.05-.16-.12-.04-.06-.05-.13-.04-.2ZM10.94,10.33s.06,0,.08-.01c.02-.01.04-.04.05-.07,0-.03,0-.06-.02-.09-.02-.03-.04-.05-.08-.06-.03,0-.06,0-.08.01-.02.01-.04.04-.05.07s0,.06.02.09c.02.03.04.05.07.06ZM10.89,10.88s.05-.1.1-.17c.04-.06.1-.12.18-.16.07-.04.14-.07.2-.08.07,0,.13,0,.19.02.06.02.1.07.14.13l.42.67-.19.12-.4-.64s-.06-.07-.11-.07-.09,0-.14.04c-.04.03-.07.05-.1.09-.03.03-.05.06-.07.09-.02.03-.03.05-.04.07l-.18-.11ZM11.43,11.43s.05.01.08,0c.03,0,.06-.02.09-.04.04-.03.08-.06.1-.09.02-.04.04-.08.04-.12,0-.04-.02-.09-.05-.15l.1.09c.04.06.06.12.05.18,0,.06-.02.12-.05.17-.03.05-.08.1-.14.13-.06.04-.12.06-.18.06s-.11,0-.16-.03c-.05-.03-.09-.07-.13-.12-.04-.07-.06-.14-.06-.21,0-.07.02-.13.06-.19.04-.06.09-.11.16-.15.05-.03.1-.05.14-.06.05-.01.09-.02.13-.01.04,0,.06,0,.08.01l.07.12c-.06,0-.11,0-.16,0-.05.01-.1.03-.15.06-.04.03-.07.05-.09.09-.02.03-.03.06-.03.09,0,.03.01.07.03.1.02.03.04.05.06.06Z"/><path class="cls-2" d="M14.16,10.26l-.21.1-.28-.61c-.03-.08-.07-.13-.11-.15-.04-.03-.09-.03-.14,0-.04.02-.06.04-.08.07-.02.03-.03.06-.03.1,0,.04.01.08.03.13l.28.61-.21.1-.28-.61c-.03-.08-.07-.13-.11-.15-.04-.03-.09-.03-.14,0-.04.02-.06.04-.08.07-.02.03-.03.07-.03.11,0,.04.01.08.03.13l.28.61-.21.1-.46-1,.21-.1.07.15c0-.07.02-.12.04-.17.03-.05.07-.09.13-.11.07-.03.13-.04.19-.03.06.01.11.04.16.09,0-.07.02-.14.06-.19s.08-.09.14-.12c.06-.03.12-.04.18-.03.06,0,.11.04.16.09.05.05.09.11.13.2l.29.64Z"/><path class="cls-2" d="M13.86,8.61s.04-.07.08-.08c.04-.01.08-.01.11,0,.04.02.06.05.08.09.02.04.02.08,0,.12s-.04.07-.08.08c-.04.01-.07.01-.11,0-.04-.02-.07-.05-.08-.09-.02-.04-.02-.08,0-.12ZM14.26,9.05l.39,1.03-.21.08-.39-1.03.21-.08Z"/><path class="cls-2" d="M15.24,8.98s-.09-.04-.15-.02c-.04.01-.07.04-.1.06s-.04.07-.05.11,0,.09.01.13l.2.64-.22.07-.34-1.05.22-.07.05.16c.01-.07.03-.13.07-.18s.09-.08.16-.1c.11-.03.2-.02.28.03.08.05.14.14.18.27l.21.67-.23.07-.2-.64c-.02-.08-.06-.13-.1-.16Z"/><path class="cls-2" d="M16.19,9.54c-.09-.03-.16-.08-.22-.15-.06-.08-.11-.17-.13-.28-.03-.11-.03-.22,0-.31.02-.09.06-.17.13-.24.06-.06.15-.11.25-.13.1-.02.19-.02.28,0,.08.03.15.08.21.15.06.07.1.17.13.28,0,.01,0,.03,0,.04,0,.01,0,.02,0,.03l-.85.21-.04-.17.66-.16-.04.12s0-.02,0-.04c0-.02,0-.03,0-.04-.01-.06-.04-.11-.07-.14-.03-.04-.07-.06-.11-.08-.04-.01-.09-.02-.13,0-.06.01-.1.04-.14.08-.03.04-.05.09-.06.14,0,.06,0,.13.01.21.02.08.04.14.08.19.03.05.07.08.12.1.05.02.1.02.16,0,.06-.02.11-.04.15-.08s.07-.09.08-.16l.22.04c-.03.11-.08.2-.14.27-.07.07-.16.12-.27.14-.1.02-.19.02-.28,0Z"/><path class="cls-2" d="M17.81,9.79l-.2-1.62.23-.03.2,1.62-.23.03ZM18.7,8.9c-.03.09-.08.17-.15.22-.07.05-.14.09-.23.1-.08.01-.16,0-.23-.04-.07-.04-.12-.1-.17-.18s-.07-.18-.09-.3c-.02-.12-.01-.22.01-.31.02-.09.06-.16.12-.22.06-.05.13-.09.21-.1.09-.01.17,0,.25.04.08.04.15.09.2.17.06.08.09.18.11.3.02.12,0,.23-.03.32ZM18.43,8.43s-.08-.08-.12-.1c-.05-.02-.1-.03-.15-.02-.04,0-.09.03-.13.06-.04.03-.07.07-.09.13-.02.05-.03.12-.02.19,0,.08.03.14.07.18.03.05.07.08.12.1.05.02.09.03.14.02.05,0,.1-.03.14-.06.04-.03.07-.08.09-.13.02-.05.03-.12.02-.19,0-.07-.03-.13-.06-.18Z"/><path class="cls-2" d="M19.23,9.1l-.23.02-.07-1.1h.23s.07,1.09.07,1.09ZM19.41,8.22s-.04-.01-.07,0c-.04,0-.07.02-.09.04-.02.02-.04.06-.05.1,0,.04-.01.09,0,.14l-.08-.04c0-.09,0-.17.03-.24.02-.07.06-.13.1-.17.04-.04.09-.07.14-.07.04,0,.07,0,.1.01.03.01.06.03.08.06l-.1.23s-.04-.03-.06-.04Z"/><path class="cls-2" d="M19.75,8.22c.05-.09.11-.15.19-.2.08-.05.17-.07.27-.08.1,0,.19.02.27.07.08.05.14.12.19.2.05.09.07.19.07.3,0,.11-.02.21-.07.3-.05.09-.11.16-.19.21-.08.05-.17.07-.27.08-.1,0-.19-.02-.28-.07-.08-.05-.15-.12-.19-.2-.05-.09-.07-.19-.07-.3,0-.11.02-.21.07-.3ZM19.96,8.7c.03.05.06.09.11.12.04.03.1.04.15.04.05,0,.11-.01.15-.04.05-.03.08-.07.11-.12.03-.05.04-.11.04-.18,0-.07-.01-.13-.04-.18-.03-.05-.06-.09-.11-.12-.05-.03-.1-.04-.15-.04-.06,0-.11.01-.15.04-.05.03-.08.07-.11.12-.03.05-.04.12-.04.18,0,.07.01.13.04.18Z"/><path class="cls-2" d="M20.78,9.35s.04.02.06.02c.02,0,.04,0,.06-.02.02-.01.03-.03.04-.06,0-.03.02-.07.02-.11l.06-1.21h.23s-.06,1.27-.06,1.27c0,.08-.02.15-.05.21-.03.06-.07.1-.12.13-.05.03-.11.04-.18.04-.04,0-.07,0-.09-.02-.03,0-.05-.02-.07-.04-.02-.02-.04-.04-.05-.06l.12-.2s.02.04.04.05ZM21.04,7.42s.07-.04.11-.04c.04,0,.07.02.1.05.03.03.04.07.04.11,0,.04-.02.08-.05.11s-.06.04-.1.04c-.04,0-.07-.02-.1-.05-.03-.03-.04-.07-.04-.11,0-.04.02-.08.05-.11Z"/><path class="cls-2" d="M21.66,9.07c-.07-.06-.13-.13-.16-.22-.03-.09-.04-.19-.03-.31.01-.12.04-.21.09-.3.05-.08.12-.14.2-.18.08-.04.18-.05.28-.04.1,0,.19.04.26.09.07.05.12.12.15.21.03.09.04.19.03.31,0,.01,0,.03,0,.04,0,.01,0,.02,0,.03l-.87-.08.02-.18.67.06-.08.1s.01-.02.02-.04c0-.02.01-.03.01-.04,0-.06,0-.11-.02-.16s-.04-.08-.08-.11c-.03-.03-.08-.04-.12-.05-.06,0-.11,0-.15.03s-.08.06-.11.12c-.03.05-.04.12-.05.2,0,.08,0,.15.01.21.02.06.04.1.08.13.04.03.09.05.15.06.06,0,.12,0,.17-.03.05-.02.09-.06.13-.12l.19.11c-.06.09-.13.16-.22.2-.09.04-.19.06-.3.05-.1,0-.19-.04-.26-.1Z"/><path class="cls-2" d="M23.14,7.41l-.3,1.85-.23-.04.3-1.85.23.04ZM23.66,8.27l-.5.38.36.72-.28-.04-.37-.72.5-.38.28.05Z"/><path class="cls-2" d="M24.23,8l-.31,1.46-.23-.05.31-1.46.23.05ZM24.31,8.41l-.05.22-.55-.12.05-.22.55.12Z"/><path class="cls-2" d="M24.41,9.52c-.06-.07-.1-.15-.12-.24-.02-.09-.01-.2.02-.31.03-.11.08-.21.14-.28.06-.07.14-.12.23-.15.09-.03.18-.03.28,0,.1.03.18.07.24.13.06.06.1.14.12.23.02.09,0,.19-.02.31,0,.01,0,.03-.01.04,0,.01,0,.02-.01.03l-.85-.22.05-.17.65.17-.1.09s.01-.02.02-.03c0-.01.01-.03.02-.04.02-.06.02-.11,0-.16,0-.05-.03-.09-.06-.12-.03-.03-.07-.05-.12-.07-.06-.02-.11-.01-.16,0-.05.02-.09.05-.12.1-.03.05-.06.11-.08.19-.02.08-.03.14-.02.2,0,.06.03.11.06.15.03.04.08.07.14.08.06.02.12.02.17,0s.1-.05.15-.1l.17.14c-.08.08-.16.14-.25.16-.09.03-.19.03-.31,0-.1-.03-.18-.07-.24-.14Z"/><path class="cls-2" d="M25.54,9.9l-.22-.07.34-1.05.22.07-.34,1.05ZM26.04,9.14s-.04-.03-.06-.04c-.04-.01-.07-.01-.1,0s-.06.04-.08.07c-.02.03-.04.08-.06.13l-.06-.07c.03-.08.07-.15.12-.21.05-.06.1-.09.16-.12.06-.02.11-.03.16-.01.03.01.06.03.09.05.03.02.05.05.06.08l-.17.17s-.03-.05-.04-.06Z"/><path class="cls-2" d="M26.44,9.97s.08-.02.12,0c.04.02.07.04.09.08.02.04.02.08,0,.12-.01.04-.04.07-.08.09-.04.02-.08.02-.12,0-.04-.02-.07-.04-.08-.08-.02-.04-.02-.08,0-.12.02-.04.04-.07.08-.09ZM27.22,9.06s-.03-.09-.06-.13c-.03-.04-.08-.07-.13-.09-.06-.02-.13-.03-.19-.02-.06.01-.12.04-.18.09l-.11-.19c.06-.04.12-.07.18-.1.06-.03.12-.04.19-.04.07,0,.14.02.22.05.06.03.12.06.17.11.05.04.08.1.11.16s.04.12.04.19c0,.07-.01.14-.04.21-.03.09-.08.16-.15.21-.07.05-.14.09-.22.11-.08.02-.16.02-.24,0l-.1.23-.17-.07.11-.41.06.02c.08.03.15.04.22.03.07-.01.13-.03.17-.07.05-.04.08-.08.1-.13.02-.06.03-.11.02-.16Z"/><path class="cls-2" d="M28.84,9.23l-.85,1.67-.2-.1.85-1.67.2.1ZM29.07,10.21l-.59.21.13.79-.25-.13-.13-.8.59-.21.25.13Z"/><path class="cls-2" d="M29.85,9.77l-.92,1.63-.2-.12.93-1.63.2.12Z"/><path class="cls-2" d="M29.97,10.74l-.57.94-.2-.12.57-.94.2.12ZM30.07,10.16s.08,0,.11.01c.04.02.06.05.07.09,0,.04,0,.08-.02.12-.02.04-.05.06-.09.07-.04.01-.08,0-.11-.01-.03-.02-.05-.05-.06-.09,0-.04,0-.08.02-.12.02-.04.06-.06.1-.07Z"/><path class="cls-2" d="M30.87,10.4l-1.05,1.56-.19-.13,1.04-1.56.19.13ZM30.98,11.41l-.61.14.03.8-.24-.16-.03-.8.61-.14.24.16Z"/><path class="cls-2" d="M30.68,13.22l1.04-1.26.18.15-1.04,1.26-.18-.15ZM31.94,13.27c-.09.04-.18.05-.26.04-.09-.01-.16-.04-.23-.1-.07-.05-.11-.12-.12-.2-.02-.08-.01-.16.02-.25.03-.09.08-.18.16-.27.08-.09.16-.16.24-.21.08-.04.16-.07.24-.06.08,0,.15.03.22.09.07.05.11.12.14.21s.03.17,0,.27c-.02.1-.07.19-.15.29-.08.09-.16.16-.25.2ZM32.09,12.74c.01-.06,0-.11,0-.16-.02-.05-.05-.09-.09-.13-.03-.03-.08-.05-.13-.05-.05,0-.1,0-.16.02-.05.02-.11.06-.15.12-.05.06-.08.12-.09.17-.01.06,0,.11,0,.16.02.05.04.09.08.12.04.04.09.06.14.07s.1,0,.16-.02c.05-.02.1-.06.15-.12.05-.06.08-.11.09-.17Z"/><path class="cls-2" d="M32.26,13.57s0,.05.01.08c.01.03.03.06.06.08.04.03.08.06.12.07.04.02.08.02.13,0,.04-.01.09-.04.13-.09l-.06.12c-.05.05-.1.08-.16.1-.06.01-.12.01-.18,0-.06-.02-.11-.05-.16-.1-.05-.05-.09-.1-.11-.16-.02-.05-.02-.11-.01-.17s.04-.11.09-.16c.06-.06.12-.1.18-.11.06-.01.13-.01.2.01.07.02.13.06.19.12.04.04.07.08.1.12.02.04.04.08.04.12s.01.06,0,.08l-.09.1c0-.06-.02-.11-.04-.15-.02-.04-.06-.09-.1-.13-.04-.03-.07-.06-.11-.07-.03-.01-.07-.01-.1,0-.03,0-.06.03-.09.05-.02.03-.04.05-.04.08ZM32.66,12.9c.05,0,.12.03.19.05.07.03.14.07.2.13.06.06.1.12.13.18.03.06.03.12.03.19,0,.06-.04.12-.09.17l-.54.57-.17-.16.52-.55s.05-.08.04-.13c0-.05-.03-.09-.07-.13-.03-.03-.07-.06-.11-.08-.04-.02-.07-.03-.11-.04-.03,0-.06-.01-.08-.02l.06-.2ZM33.33,12.55c.07,0,.12.02.17.07.05.04.07.1.07.17,0,.07-.02.13-.08.18-.05.06-.11.08-.18.08-.07,0-.12-.02-.17-.06-.05-.04-.07-.1-.07-.17,0-.07.02-.13.07-.18.05-.06.11-.08.18-.09ZM33.21,12.81s.01.05.03.07c.02.02.04.03.07.03.03,0,.06-.01.08-.04.03-.03.04-.06.04-.09,0-.03-.01-.06-.03-.08-.02-.02-.04-.03-.08-.03-.03,0-.06.02-.09.04-.03.03-.04.06-.04.09Z"/><path class="cls-2" d="M34.11,15.92l-.15-.18.51-.43c.06-.05.1-.1.12-.15.01-.05,0-.09-.04-.14-.03-.03-.05-.05-.09-.06-.03,0-.07,0-.11,0-.04.01-.08.03-.12.07l-.51.43-.15-.18.51-.43c.06-.05.1-.1.12-.15.01-.05,0-.09-.03-.14-.03-.03-.06-.05-.09-.06s-.07,0-.11,0c-.04.01-.08.03-.12.07l-.51.43-.15-.18.84-.71.15.18-.12.1c.06-.02.12-.02.18,0s.1.05.14.1c.05.06.07.11.08.17,0,.06,0,.12-.04.17.07-.01.14-.01.2,0,.06.02.11.05.15.11.05.05.07.11.08.17,0,.06,0,.12-.04.17-.03.06-.09.12-.16.18l-.54.45Z"/><path class="cls-2" d="M34.54,16.12s-.01.05,0,.08c0,.03.02.06.04.09.03.04.06.07.1.09.04.02.08.03.12.03.04,0,.09-.02.15-.06l-.08.1c-.06.04-.12.06-.18.07-.06,0-.12-.01-.17-.04-.05-.03-.1-.07-.14-.13-.04-.06-.07-.11-.08-.17,0-.06,0-.11.02-.17.02-.05.06-.1.12-.14.07-.05.13-.08.2-.08.07,0,.13.01.19.05.06.04.12.09.16.15.03.05.06.09.07.14.01.05.02.09.02.12,0,.04,0,.07,0,.08l-.11.08c0-.06,0-.11-.01-.16-.01-.05-.04-.09-.07-.14-.03-.04-.06-.07-.09-.09-.03-.02-.06-.03-.1-.02-.03,0-.06.01-.09.04-.03.02-.05.04-.06.07ZM35.06,15.54c.05.02.11.05.17.09.06.04.12.1.17.17.05.07.08.13.09.2.01.07.01.13,0,.19-.02.06-.06.11-.12.15l-.64.46-.13-.19.61-.45s.06-.07.06-.12c0-.05-.02-.09-.05-.14-.03-.04-.06-.07-.09-.1-.03-.03-.07-.04-.1-.06s-.06-.02-.07-.03l.09-.18ZM35.78,15.32c.07.01.12.04.16.1.04.05.05.11.04.18-.01.07-.05.12-.11.17-.06.04-.12.06-.19.05-.07-.01-.12-.04-.16-.1-.04-.05-.05-.11-.04-.18,0-.07.04-.12.11-.17.06-.04.13-.06.19-.05ZM35.61,15.55s0,.06.02.08c.02.02.04.04.07.04s.06,0,.09-.03c.03-.02.05-.05.05-.08,0-.03,0-.06-.02-.08-.02-.02-.04-.04-.07-.04-.03,0-.06,0-.09.03-.03.02-.05.05-.05.08Z"/><path class="cls-2" d="M35.92,17.05s.01-.1-.02-.15c-.02-.04-.05-.06-.09-.08-.03-.02-.07-.02-.11-.02-.04,0-.08.02-.12.05l-.57.36-.13-.2.93-.59.12.2-.14.09c.07,0,.14,0,.19.02.05.03.1.07.14.13.06.1.07.19.04.28-.03.09-.1.17-.22.24l-.59.38-.13-.2.57-.36c.07-.04.11-.09.13-.14Z"/><path class="cls-2" d="M35.62,18.12c0-.09.04-.18.09-.25.06-.08.13-.15.23-.2.1-.06.2-.09.3-.09.1,0,.18.02.26.06.08.05.14.12.19.21.05.09.07.18.07.27,0,.08-.03.17-.09.24-.05.07-.13.14-.24.2-.01,0-.02.01-.04.02-.01,0-.02.01-.03.01l-.42-.77.16-.09.32.59h-.13s.02-.01.04-.02c.02,0,.03,0,.04-.01.05-.03.09-.06.12-.1.03-.04.04-.08.05-.12s0-.09-.03-.13c-.03-.05-.07-.09-.11-.11-.04-.02-.1-.03-.15-.02s-.12.03-.19.07c-.07.04-.12.08-.16.13-.04.05-.06.09-.06.15,0,.05,0,.1.04.16.03.05.07.1.12.12.05.03.11.04.17.04l.02.22c-.11,0-.21-.02-.29-.07s-.15-.12-.21-.22c-.05-.09-.07-.18-.07-.27Z"/><path class="cls-2" d="M37.06,19.18s.02-.1,0-.15c-.02-.04-.04-.07-.08-.09-.03-.02-.07-.03-.11-.03-.04,0-.08.01-.13.03l-.61.29-.1-.21,1-.47.1.21-.15.07c.07,0,.13.02.18.05.05.03.09.08.12.14.05.1.05.2,0,.28-.04.09-.13.16-.25.21l-.63.3-.1-.22.61-.29c.07-.04.12-.08.15-.12Z"/><path class="cls-2" d="M36.76,20.06s.07.04.08.08c.02.04.02.08,0,.12-.02.04-.05.07-.09.08-.04.02-.08.02-.12,0-.04-.01-.07-.04-.08-.08-.02-.04-.02-.08,0-.12.02-.04.05-.07.09-.09.04-.02.08-.02.12,0ZM38.2,19.75l-1.1.39-.07-.17,1.06-.49.11.27Z"/></svg>