<?xml version="1.0" encoding="UTF-8"?><svg id="Layer_2" xmlns="http://www.w3.org/2000/svg" width="191.21" height="279.21" viewBox="0 0 191.21 279.21"><defs><style>.cls-1{fill:#faebca;}.cls-2{opacity:.23;}</style></defs><polygon class="cls-1" points="185.77 2.61 46.73 1.5 4.89 33.7 1.52 277.64 189.69 269.87 185.77 2.61"/><path d="M0,279.21L3.4,32.96,46.22,0h.52s140.51,1.12,140.51,1.12l3.97,270.19L0,279.21ZM6.38,34.45l-3.33,241.63,185.12-7.64-3.88-264.33L47.23,3.01,6.38,34.45Z"/><polygon class="cls-1" points="6.72 33.94 45.38 4.17 39.4 42.51 6.72 33.94"/><path d="M40.62,44.38L3.38,34.61,47.44.69l-6.82,43.69ZM10.05,33.26l28.12,7.38,5.15-32.99L10.05,33.26Z"/><path class="cls-1" d="M139.72,45.98l-16.2-3.65-8.44.31c-2.41.18-4.79.67-7.08,1.44l-6.36,2.14s-14.4,3.83-21.34,26.84c-2.25,7.46-3.19,11.14-3.32,16.23-.22,8.26,4.27,15.83,6.48,20.23,2.21,4.41,12.01,10.78,17.23,11.42,17.4,2.15,21.18,2.4,36.99-9.62,15.81-12.02,23.34-15.46,24.98-21.24,2.3-8.11-2.72-18.24-3.51-18.64"/><path d="M113.76,123.57c-3.6,0-7.78-.47-13.25-1.15-5.86-.72-16-7.47-18.39-12.23-.24-.49-.52-1.01-.81-1.57-2.4-4.64-6.04-11.65-5.83-19.37.14-5.35,1.14-9.18,3.38-16.62,7.1-23.54,21.77-27.7,22.39-27.86l6.26-2.12c2.4-.81,4.91-1.32,7.45-1.51l8.69-.32,16.39,3.7-.66,2.93-16.01-3.61-8.24.3c-2.23.17-4.49.63-6.66,1.36l-6.36,2.14c-.22.06-13.8,4.03-20.39,25.86-2.16,7.18-3.13,10.84-3.26,15.83-.18,6.95,3.24,13.55,5.5,17.92.3.57.57,1.11.82,1.61,1.94,3.87,11.26,10.01,16.08,10.6,16.84,2.07,20.34,2.51,35.9-9.32,4.65-3.54,8.65-6.38,11.86-8.66,7.7-5.47,11.57-8.22,12.58-11.79,2.04-7.2-2.23-16.17-3.05-17.11,0,0,.1.11.3.21l1.36-2.68c1.67.84,6.71,11.8,4.28,20.38-1.3,4.59-5.71,7.73-13.73,13.42-3.2,2.27-7.17,5.09-11.78,8.6-11.19,8.51-16.48,11.06-24.84,11.06Z"/><polyline class="cls-1" points="126.35 61.04 107.13 67.15 116.17 100.66"/><polygon points="114.73 101.05 105.31 66.16 125.9 59.61 126.81 62.46 108.95 68.14 117.62 100.27 114.73 101.05"/><line class="cls-1" x1="125.28" y1="79.25" x2="103.07" y2="87.21"/><rect x="102.37" y="81.73" width="23.6" height="3" transform="translate(-21.38 43.38) rotate(-19.71)"/><rect x="36.96" y="148.76" width="72.3" height="3"/><rect x="29.17" y="171.82" width="107.46" height="3"/><line class="cls-1" x1="29.17" y1="194.2" x2="130.93" y2="194.2"/><rect x="29.17" y="192.7" width="101.75" height="3"/><rect x="29.17" y="210.98" width="87.88" height="3"/><g class="cls-2"><polygon points="8.87 36.18 39.61 48.46 40.78 43.24 8.87 36.18"/></g></svg>