<?xml version="1.0" encoding="UTF-8"?><svg id="Layer_2" xmlns="http://www.w3.org/2000/svg" width="193.29" height="261.16" viewBox="0 0 193.29 261.16"><defs><style>.cls-1{fill:#faebca;}</style></defs><path class="cls-1" d="M1.5,12.64v110.7c0,3.62.46,7.22,1.39,10.72.53,2.02.97,6.03.77,13.94-.41,16.54-1.01,77.92-1.05,82.83,0,.21.01.42.04.62l.92,6.13c.09.58.3,1.12.62,1.61,1.42,2.14,5.43,8.42,5.08,10.91-.43,3.02,4.41,5.6,9.33,6.03,4.92.43,8.02-5.79,12.77-4.5,2.2.6-7.26,1.26-1.86-.14,1.53-.4,6.74,2.04,6.86,3.61.03.43,1.5.87,6.6,1.05,11.67.42,25.06,5.59,28.09,2.57,3.02-3.02,20.74-8.62,20.74-4.74s17.72.43,17.72.43c0,0,16.85-3.88,23.33-5.6,5.29-1.41,18.06.63,22.58,1.43.73.13,1.47.01,2.17-.23.85-.3,3.02-.27,8.52,1.82,6.96,2.64,14.94-.8,18.28-2.54.97-.51,2.1-.59,3.13-.23,1.24.44,2.89.77,3.65-.25,1.2-1.6.17-12.83.02-14.45-.01-.14-.02-.26-.02-.4.05-3.65.71-55.51.57-59.25s-4.47-54.08-4.87-58.68c-.02-.23-.02-.44,0-.67.38-4.21,4.14-46.84,1.27-50.93-3.02-4.31-1.73-21.97,0-23.26s-1.73-22.83-1.73-25.85,3.46-10.34,1.73-12.06c-1.73-1.72-13.4,3.45-17.28,3.45-3.56,0-22.37-.72-25.49-.84-.29-.01-.57-.05-.84-.12-2.74-.72-18.59-4.72-22.93-2.83-4.75,2.07-47.53-3.51-51.85-.5-4.32,3.01-31.54,4.73-31.54,4.73l-32.94,1.55c-2.12.1-3.79,1.84-3.79,3.96Z"/><path d="M67.59,261.16c-2.66,0-6.14-.67-10.28-1.48-4.52-.88-9.64-1.87-14.39-2.04-6.01-.21-7.82-.72-8.03-2.3-.34-.52-1.76-1.35-3.05-1.89-.66.22-1.65.4-3.13.36-.23,0-.64,0-1.07-.11-.65.35-1.31.8-2.01,1.27-2,1.36-4.27,2.9-7.16,2.64-4.1-.36-7.88-2.01-9.63-4.22-.87-1.09-1.23-2.31-1.06-3.52.15-1.03-1.3-4.55-4.84-9.86-.45-.67-.74-1.42-.86-2.22l-.92-6.13c-.04-.29-.06-.57-.06-.86.06-6.75.64-66.47,1.05-82.85.2-8.13-.28-11.84-.72-13.52-.95-3.61-1.44-7.35-1.44-11.11V12.64c0-2.92,2.29-5.32,5.22-5.46l32.94-1.55c10.34-.65,27.86-2.45,30.76-4.46,2.58-1.8,12.89-1.27,29.57-.18,9.22.6,20.69,1.35,22.54.54,4.52-1.97,18.22,1.27,23.91,2.75.17.04.34.07.52.08,2.23.09,21.83.84,25.43.84,1.41,0,4.52-.94,7.27-1.78,6.03-1.83,9.51-2.79,11.07-1.23,1.69,1.69.72,5.11-.31,8.73-.48,1.7-.98,3.45-.98,4.4,0,.83.35,3.68.71,6.69,1.94,15.88,1.86,19.11.53,20.27-1.31,2.15-2.24,17.81.21,21.29,2.94,4.19.28,37.71-1,51.93-.01.14-.01.27,0,.41.19,2.24,4.73,54.9,4.87,58.76.13,3.61-.45,50.05-.57,59.32,0,.08,0,.16,0,.24.85,8.87.75,14.08-.31,15.49-.72.96-2.23,1.87-5.35.76-.63-.22-1.33-.17-1.94.14-3.34,1.75-11.92,5.49-19.5,2.62-5.9-2.24-7.34-1.86-7.49-1.81-1.02.36-2.01.46-2.93.29-3.86-.68-16.87-2.8-21.93-1.46-6.43,1.71-23.21,5.57-23.38,5.61-3.6.7-15.43,2.76-18.54.2-.58-.48-.93-1.11-1-1.81-2.48-1-15.6,2.93-18.2,5.52-1,1-2.53,1.38-4.53,1.38ZM37.66,254.16c.55.14,1.95.37,5.37.49,4.98.18,10.22,1.19,14.85,2.09,5.12.99,10.92,2.12,12.12.92,3.01-3,17.36-7.86,21.58-6.11,1.04.43,1.66,1.25,1.72,2.27,1.3.94,8.61.55,15.93-.88.12-.03,16.85-3.88,23.23-5.58,5.51-1.46,18.08.49,23.23,1.4.41.07.88.02,1.42-.17,1.05-.37,3.19-.58,9.55,1.84,6.44,2.45,14.07-.91,17.05-2.47,1.34-.7,2.92-.81,4.33-.31,1.38.49,1.92.31,1.95.26.46-.97.36-6.76-.28-13.41-.02-.2-.03-.37-.02-.56.07-5.67.71-55.56.57-59.17-.14-3.78-4.82-58.06-4.86-58.61-.03-.31-.03-.62,0-.93,2.06-22.85,3.25-47.33,1.53-49.94-2.07-2.95-2.17-9.83-2.05-13.67.09-2.9.48-9.61,2.14-11.43.59-1.95-.72-12.64-1.35-17.82-.47-3.85-.74-6.08-.74-7.05,0-1.36.53-3.24,1.09-5.22.48-1.69,1.35-4.76,1.09-5.7-1.26-.19-5.51,1.1-8.1,1.89-3.23.98-6.29,1.91-8.14,1.91-3.58,0-21.91-.7-25.55-.85-.4-.02-.78-.07-1.17-.17-8.62-2.25-19.16-4.12-21.95-2.91-2.4,1.05-10.66.57-23.94-.29-10.23-.67-25.7-1.67-27.66-.35-4.53,3.16-29.48,4.82-32.31,5l-32.96,1.55c-1.32.06-2.36,1.14-2.36,2.46v110.7c0,3.5.45,6.98,1.34,10.34.72,2.72.99,7.55.82,14.36-.41,16.37-.99,76.05-1.05,82.81,0,.13,0,.26.03.39l.92,6.12c.05.36.19.7.39,1,2.64,3.96,5.7,9.25,5.31,11.95-.02.14-.08.57.44,1.23,1.22,1.54,4.32,2.81,7.54,3.09,1.81.15,3.47-.96,5.21-2.14,1.58-1.07,3.32-2.25,5.35-2.5.23-.04.48-.06.74-.05.55,0,1.13.07,1.74.23.3.08.54.19.73.32,1.27.46,2.54,1.13,3.4,1.75.88.63,1.46,1.26,1.75,1.91ZM34.93,255.4h0ZM186.99,40.29h0s0,0,0,0ZM187.27,39.97s0,0,0,0c0,0,0,0,0,0Z"/><polyline class="cls-1" points="67.16 147.44 42.38 150.45 37.14 151.08"/><rect x="37.03" y="147.76" width="30.24" height="3" transform="translate(-17.6 7.37) rotate(-6.92)"/><line class="cls-1" x1="40.3" y1="180.2" x2="42.38" y2="150.45"/><rect x="26.43" y="163.82" width="29.83" height="3" transform="translate(-126.46 195.05) rotate(-86.01)"/><path d="M32.96,170.94l-.65-2.93s3.34-.76,7.32-2.75c4.55-2.28,12.93-1.46,13.29-1.43l-.3,2.99c-2.18-.22-8.51-.44-11.65,1.12-4.33,2.16-7.86,2.96-8.01,3Z"/><path d="M61.06,185.62c-.4,0-.83-.04-1.27-.14-1.67-.35-2.83-1.14-3.43-2.34-1.05-2.09.09-4.57.52-5.51.67-1.46,4.61-5.3,6.28-6.89.91-.97,3.25-2.41,5.89-1.31.06.02.11.05.17.07-.16-1.84-.37-3.19-.6-3.82l-.15-.4c-.39-1.09-.41-1.16-3.84-2.29l-5.61,3.45-1.57-2.55,6.8-4.19.66.22c4.85,1.6,5.51,1.9,6.38,4.35l.14.38c.6,1.62.86,5.22.98,7.97,1.34,2.04,2.21,4.48,2.21,5.81h-3c0-.46-.26-1.3-.68-2.21l-3.94,4.74c-.71,1.85-2.67,4.66-5.94,4.66ZM67.12,172.05c-1.03,0-1.81.78-1.85.82-2.47,2.36-5.31,5.3-5.67,6.02-.24.52-.96,2.11-.56,2.9.22.43.86.65,1.37.75,2.6.54,3.73-2.48,3.85-2.82l.09-.26.18-.22,4.8-5.77c-.47-.61-.97-1.08-1.43-1.27-.27-.11-.53-.16-.78-.16Z"/><rect x="79.34" y="168.21" width="3" height="10.98" transform="translate(-10.73 5.41) rotate(-3.59)"/><path d="M80.02,163.31c-.94,0-1.26-.53-1.4-1.46h-.04s-.01-.25-.03-.67c-.02-.25-.03-.52-.05-.8l-.08-1.51h.01c0-.06,0-.13-.01-.2l3-.16.13,2.52c0,.1.01.21.01.33,0,.18.02.3.02.34h-.02c-.04.72-.28,1.55-1.39,1.61-.05,0-.1,0-.14,0Z"/><path d="M95,178.3l-3-.12.41-10.02c.07-1.66.11-2.86.14-3.72l-1.77-11.6,2.97-.45,1.3,8.48c.59.49.56,1.49.54,2.46-.02.93-.07,2.48-.17,4.95l-.41,10.02Z"/><path d="M111.39,179.91c-1.96,0-3.5-.86-4.7-1.52-.49-.27-.95-.53-1.37-.69-2.12-.83-2.12-4.24-1.52-7.6l-.44-2.08c.31-.07.62-.14.93-.21l.11-.27c.35-.67,3.49-6.61,5.95-8.88.44-.4,1.77-1.63,3.06-.77.97.65,1.07,1.95.33,3.98-.48,1.23-2.08,5.23-2.97,6.37-.62.8-2.19,1.47-3.92,1.99-.38,2.11-.49,4.11-.23,4.76.54.23,1.05.51,1.54.79,1.38.77,2.56,1.43,4.21,1.02,2.73-.67,3.78-1.21,3.79-1.22l1.42,2.64c-.13.07-1.36.71-4.49,1.49-.6.15-1.16.21-1.7.21Z"/><path d="M127.16,180.4c-2.2,0-4.05-1.18-4.81-1.66-2.22-1.41-1.62-3.99-1.09-6.27.21-.9.42-1.82.52-2.73.37-3.65,7.9-7.56,10.79-8.93l.76-11.64,2.99.19-1.03,15.77,1.11,10.27-.7.51c-.14.1-3.52,2.57-5.7,3.76-.97.53-1.94.73-2.85.73ZM132.34,164.27c-4.1,2.13-7.46,4.65-7.58,5.77-.11,1.1-.36,2.17-.58,3.11-.3,1.3-.65,2.78-.22,3.06,1.98,1.26,3.36,1.51,4.61.83,1.44-.79,3.57-2.27,4.67-3.05l-.95-8.79.06-.93Z"/><rect x="132.24" y="176.19" width="5.08" height="3" transform="translate(-61.12 284.28) rotate(-81.37)"/><rect x="137.39" y="160.37" width="32.9" height="3" transform="translate(-44.07 265.32) rotate(-74.05)"/><rect x="144.37" y="184.91" width="5.13" height="3" transform="translate(-89.77 203.98) rotate(-56)"/><path class="cls-1" d="M116.24,23.22l-16.2-3.65-8.44.31c-2.41.18-4.79.67-7.08,1.44l-6.36,2.14s-14.4,3.83-21.34,26.84c-2.25,7.46-3.19,11.14-3.32,16.23-.22,8.26,4.27,15.83,6.48,20.23s12.01,10.78,17.23,11.42c17.4,2.15,21.18,2.4,36.99-9.62,15.81-12.02,23.34-15.46,24.98-21.24,2.3-8.11-2.72-18.24-3.51-18.64"/><path d="M90.28,100.82c-3.6,0-7.78-.47-13.25-1.15-5.85-.72-15.99-7.47-18.39-12.23-.24-.49-.52-1.01-.81-1.57-2.4-4.64-6.04-11.65-5.84-19.38.14-5.35,1.14-9.18,3.38-16.62,7.1-23.54,21.77-27.7,22.39-27.86l6.26-2.12c2.4-.81,4.91-1.32,7.45-1.51l8.69-.32,16.39,3.7-.66,2.93-16.01-3.61-8.24.3c-2.23.17-4.49.63-6.66,1.36l-6.36,2.14c-.22.06-13.8,4.03-20.39,25.86-2.16,7.18-3.13,10.84-3.26,15.83-.18,6.96,3.24,13.55,5.5,17.92.3.57.57,1.11.82,1.6,1.94,3.87,11.26,10.01,16.08,10.6,16.84,2.08,20.34,2.51,35.9-9.32,4.65-3.54,8.65-6.38,11.86-8.66,7.7-5.47,11.57-8.22,12.58-11.79,2.04-7.2-2.23-16.17-3.05-17.11,0,0,.1.11.3.21l1.36-2.68c1.67.85,6.71,11.81,4.28,20.38-1.3,4.59-5.71,7.73-13.73,13.42-3.2,2.27-7.17,5.09-11.78,8.6-11.19,8.51-16.48,11.06-24.84,11.06Z"/><polyline class="cls-1" points="103.24 35.65 84.02 41.77 93.06 75.28"/><polygon points="91.61 75.67 82.2 40.77 102.79 34.23 103.69 37.08 85.84 42.76 94.51 74.89 91.61 75.67"/><line class="cls-1" x1="104.74" y1="51.49" x2="82.52" y2="59.45"/><rect x="81.83" y="53.97" width="23.6" height="3" transform="translate(-13.22 34.83) rotate(-19.71)"/></svg>