<svg width="819" height="196" viewBox="0 0 819 196" fill="none" xmlns="http://www.w3.org/2000/svg">
<g clip-path="url(#clip0_211_91)">
<path d="M166.188 32.1709H1.0332V134.374H166.188V32.1709Z" fill="#FAEBCA"/>
<path d="M167.223 135.419H0V31.127H167.223V135.419ZM2.06737 133.33H165.155V33.2157H2.06737V133.33Z" fill="black"/>
<path d="M0.924822 30.2939L0.186523 31.4697L70.3707 76.4535L71.109 75.2776L0.924822 30.2939Z" fill="black"/>
<path d="M79.656 75.7702C82.5779 74.9764 74.715 67.9513 70.1668 69.3925C69.9739 69.4552 69.7878 69.5178 69.6017 69.5944C64.3851 71.6692 62.6967 78.3115 65.9701 82.9137C69.2985 87.5856 74.1362 93.7962 79.0703 94.6735C84.0458 95.5577 88.2701 90.2035 88.2701 90.2035C88.4768 90.3079 103.252 76.731 92.1774 69.8868C87.0297 66.705 79.656 75.7771 79.656 75.7771V75.7702Z" fill="#FC5375"/>
<path d="M80.2141 95.1119C79.8213 95.1119 79.4216 95.0771 79.015 95.0075C74.0878 94.1302 69.3053 88.1912 65.6943 83.1085C64.0128 80.7482 63.5167 77.7961 64.3298 75.0041C65.1016 72.3514 66.9761 70.2626 69.4776 69.267C69.6705 69.1904 69.8704 69.1208 70.0633 69.0581C73.0679 68.1043 77.0373 70.5202 78.9737 72.3653C79.463 72.8318 80.159 73.5838 80.476 74.3288C82.757 71.9128 88.1666 66.9972 92.3634 69.5873C97.0838 72.5046 97.9177 77.072 94.7753 82.7882C93.3695 85.3435 89.8756 89.6533 88.5387 90.4122C88.3733 90.6211 84.7761 95.1119 80.2072 95.1119H80.2141ZM71.5036 69.5455C71.0695 69.5455 70.656 69.6012 70.277 69.7196C70.0978 69.7753 69.9186 69.8449 69.7394 69.9145C67.4378 70.8266 65.715 72.7552 64.9983 75.1991C64.2471 77.7822 64.702 80.5184 66.2594 82.7047C69.8015 87.6759 74.4599 93.4896 79.146 94.3251C83.8734 95.1676 87.9736 90.0362 88.015 89.9805L88.1873 89.7577L88.2631 89.7925C89.345 88.9222 95.9261 82.5097 95.9606 76.5916C95.9744 73.9597 94.6444 71.8014 92.0119 70.1721C88.0701 67.7352 82.5709 73.0825 80.6414 75.1851C80.6414 75.2269 80.6276 75.2687 80.6207 75.3105C80.5518 75.582 80.3519 75.9371 79.7662 76.0972L78.7256 76.3827L79.4078 75.5402C79.4492 75.4845 79.6421 75.2548 79.9522 74.9066C79.8764 74.475 79.4423 73.7439 78.5189 72.8666C76.672 71.1051 73.8122 69.5385 71.5174 69.5385L71.5036 69.5455Z" fill="black"/>
<path d="M68.4511 74.0996C67.6448 75.2763 67.2658 77.0796 67.9687 77.3093C68.6716 77.5391 70.1808 77.3093 70.1808 77.3093L72.3929 74.0996C72.3929 74.0996 72.2964 70.8063 70.0016 72.6862C67.7068 74.5661 68.458 74.0996 68.458 74.0996H68.4511Z" fill="white"/>
<path d="M68.8645 77.7687C68.4992 77.7687 68.134 77.7408 67.8584 77.6434C67.6861 77.5877 67.4518 77.4414 67.3277 77.0724C67.0865 76.3344 67.4449 75.109 67.9686 74.2108C67.8928 73.9741 68.1891 73.7165 69.7672 72.4215C70.5184 71.8088 71.1662 71.6208 71.6968 71.8714C72.6409 72.3101 72.7167 73.9114 72.7236 74.0925V74.2108L70.3668 77.6364L70.2221 77.6573C70.1187 77.6712 69.4916 77.7687 68.8576 77.7687H68.8645ZM68.8852 74.0785L68.7335 74.3013C68.1202 75.1995 67.8308 76.3901 67.9824 76.8566C68.0169 76.968 68.0582 76.9819 68.072 76.9819C68.5268 77.1351 69.4985 77.0515 69.974 76.9889L72.0276 74.002C71.9931 73.5842 71.8415 72.7 71.4142 72.498C71.0697 72.3379 70.5666 72.6651 70.2083 72.9576C69.4916 73.5424 69.0988 73.8836 68.8852 74.0716V74.0785Z" fill="black"/>
<path d="M165.346 30.3034L95.9316 74.9658L96.672 76.1404L166.087 31.478L165.346 30.3034Z" fill="black"/>
<g opacity="0.29">
<path d="M26.6416 48.582L65.8734 72.3869C65.8734 72.3869 63.9714 75.3878 64.123 76.9195C64.2746 78.4513 26.6416 48.582 26.6416 48.582Z" fill="black"/>
</g>
<g opacity="0.29">
<path d="M135.344 50.4199L96.6707 75.1021C96.5259 75.1926 96.4364 75.3527 96.4364 75.5268C96.4364 76.4111 96.271 78.7226 96.1469 80.0803C95.9953 81.7095 135.344 50.4199 135.344 50.4199Z" fill="black"/>
</g>
</g>
<g clip-path="url(#clip1_211_91)">
<path d="M359.329 25.6452L275.491 24.9688L250.263 44.5929L248.23 193.261L361.693 188.526L359.329 25.6452Z" fill="#FAEBCA"/>
<path d="M247.313 194.218L249.364 44.1421L275.183 24.0547H275.497L360.221 24.7373L362.615 189.404L247.313 194.218ZM251.16 45.0501L249.153 192.311L360.776 187.655L358.436 26.5595L275.792 25.8891L251.16 45.0501Z" fill="black"/>
<path d="M251.365 44.7389L274.676 26.5957L271.071 49.9619L251.365 44.7389Z" fill="#FAEBCA"/>
<path d="M271.806 51.1023L249.352 45.148L275.919 24.4756L271.806 51.1023ZM253.373 44.3253L270.329 48.823L273.435 28.7173L253.373 44.3253Z" fill="black"/>
<path d="M331.562 52.077L321.794 49.8525L316.705 50.0415C315.252 50.1512 313.816 50.4498 312.436 50.9191L308.601 52.2233C308.601 52.2233 299.918 54.5575 295.733 68.5808C294.376 73.1273 293.81 75.3701 293.731 78.4722C293.599 83.5062 296.306 88.1197 297.639 90.8013C298.971 93.4889 304.88 97.3711 308.028 97.7612C318.52 99.0715 320.799 99.2238 330.332 91.8983C339.865 84.5727 344.406 82.4762 345.394 78.9536C346.781 74.011 343.754 67.8373 343.278 67.5935" fill="#FAEBCA"/>
<path d="M315.909 99.3643C313.738 99.3643 311.217 99.0779 307.919 98.6635C304.386 98.2247 298.271 94.1109 296.83 91.2099C296.686 90.9113 296.517 90.5944 296.342 90.2531C294.895 87.4253 292.7 83.1531 292.827 78.4481C292.911 75.1876 293.514 72.8534 294.865 68.3191C299.146 53.9727 307.991 51.4374 308.365 51.3399L312.14 50.0479C313.587 49.5543 315.101 49.2434 316.632 49.1276L321.872 48.9326L331.755 51.1876L331.357 52.9733L321.703 50.7731L316.735 50.956C315.39 51.0596 314.027 51.3399 312.719 51.7848L308.884 53.089C308.751 53.1256 300.563 55.5451 296.589 68.8493C295.287 73.2252 294.702 75.4557 294.623 78.4969C294.515 82.7325 296.577 86.7549 297.94 89.4182C298.121 89.7656 298.283 90.0947 298.434 90.3994C299.604 92.7579 305.224 96.4999 308.13 96.8595C318.284 98.1211 320.395 98.3892 329.777 91.1795C332.581 89.022 334.993 87.2912 336.928 85.9017C341.571 82.568 343.905 80.892 344.514 78.7163C345.744 74.3283 343.169 68.8615 342.675 68.2886C342.675 68.2886 342.735 68.3557 342.856 68.4166L343.676 66.7833C344.683 67.2953 347.722 73.9748 346.256 79.2038C345.473 82.0012 342.813 83.9149 337.978 87.3826C336.048 88.7661 333.654 90.4847 330.875 92.6239C324.127 97.8103 320.937 99.3643 315.897 99.3643H315.909Z" fill="black"/>
<path d="M323.499 61.2549L311.91 64.9786L317.361 85.4012" fill="#FAEBCA"/>
<path d="M316.494 85.6393L310.813 64.3757L323.229 60.3838L323.778 62.1207L313.008 65.5824L318.236 85.1639L316.494 85.6393Z" fill="black"/>
<path d="M322.55 71.492L309.153 76.3428L309.763 78.064L323.16 73.2132L322.55 71.492Z" fill="black"/>
<path d="M313.195 114.716H269.6V116.544H313.195V114.716Z" fill="black"/>
<path d="M329.698 128.77H264.902V130.598H329.698V128.77Z" fill="black"/>
<path d="M326.255 141.495H264.902V143.323H326.255V141.495Z" fill="black"/>
<path d="M317.892 152.636H264.902V154.464H317.892V152.636Z" fill="black"/>
<g opacity="0.23">
<path d="M252.662 46.1045L271.198 53.5885L271.903 50.4072L252.662 46.1045Z" fill="black"/>
</g>
</g>
<g clip-path="url(#clip2_211_91)">
<path d="M445.45 29.833V103.85C445.45 106.27 445.754 108.677 446.368 111.017C446.718 112.368 447.008 115.049 446.876 120.338C446.605 131.397 446.209 172.437 446.183 175.72C446.183 175.861 446.189 176.001 446.209 176.135L446.817 180.234C446.876 180.621 447.015 180.982 447.226 181.31C448.164 182.741 450.811 186.94 450.58 188.605C450.296 190.624 453.492 192.349 456.74 192.637C459.988 192.924 462.035 188.765 465.171 189.628C466.624 190.029 460.378 190.47 463.943 189.534C464.953 189.267 468.393 190.898 468.472 191.948C468.492 192.235 469.463 192.53 472.83 192.65C480.535 192.931 489.376 196.388 491.376 194.368C493.37 192.349 505.069 188.605 505.069 191.199C505.069 193.793 516.769 191.487 516.769 191.487C516.769 191.487 527.894 188.892 532.172 187.742C535.665 186.799 544.096 188.163 547.08 188.698C547.562 188.785 548.051 188.705 548.513 188.545C549.074 188.344 550.507 188.364 554.138 189.761C558.733 191.527 564.002 189.227 566.207 188.063C566.848 187.722 567.594 187.669 568.274 187.909C569.093 188.204 570.182 188.424 570.684 187.742C571.476 186.672 570.796 179.164 570.697 178.081C570.69 177.987 570.684 177.907 570.684 177.813C570.717 175.373 571.153 140.698 571.06 138.197C570.968 135.696 568.109 102.038 567.845 98.9621C567.832 98.8084 567.832 98.6679 567.845 98.5142C568.096 95.6993 570.578 67.1958 568.683 64.4611C566.689 61.5793 567.541 49.7714 568.683 48.9089C569.825 48.0463 567.541 33.6441 567.541 31.6249C567.541 29.6056 569.825 24.7113 568.683 23.5613C567.541 22.4112 559.836 25.868 557.274 25.868C554.924 25.868 542.505 25.3866 540.445 25.3064C540.253 25.2997 540.069 25.273 539.89 25.2262C538.081 24.7447 527.616 22.0702 524.751 23.3339C521.615 24.718 493.37 20.9871 490.518 22.9996C487.666 25.0122 469.694 26.1622 469.694 26.1622L447.946 27.1986C446.546 27.2655 445.443 28.4289 445.443 29.8464L445.45 29.833Z" fill="#FAEBCA"/>
<path d="M489.085 196C487.329 196 485.031 195.552 482.298 195.011C479.314 194.422 475.933 193.76 472.797 193.647C468.829 193.506 467.634 193.165 467.495 192.109C467.271 191.761 466.333 191.206 465.482 190.845C465.046 190.992 464.392 191.113 463.415 191.086C463.263 191.086 462.993 191.086 462.709 191.012C462.28 191.246 461.844 191.547 461.382 191.861C460.061 192.771 458.562 193.8 456.654 193.627C453.947 193.386 451.452 192.283 450.296 190.805C449.722 190.076 449.484 189.261 449.596 188.451C449.695 187.763 448.738 185.409 446.401 181.859C446.104 181.411 445.912 180.909 445.833 180.374L445.226 176.276C445.199 176.082 445.186 175.895 445.186 175.701C445.226 171.188 445.609 131.257 445.879 120.305C446.011 114.869 445.694 112.389 445.404 111.265C444.777 108.852 444.453 106.351 444.453 103.837V29.8335C444.453 27.8811 445.965 26.2764 447.9 26.1828L469.648 25.1464C476.475 24.7118 488.042 23.5083 489.957 22.1644C491.66 20.9609 498.467 21.3152 509.48 22.044C515.567 22.4452 523.14 22.9467 524.362 22.4051C527.346 21.0879 536.391 23.2542 540.148 24.2438C540.26 24.2705 540.372 24.2906 540.491 24.2973C541.964 24.3575 554.904 24.8589 557.281 24.8589C558.212 24.8589 560.265 24.2304 562.081 23.6688C566.062 22.4452 568.36 21.8033 569.39 22.8464C570.506 23.9764 569.865 26.2631 569.185 28.6835C568.868 29.8201 568.538 30.9902 568.538 31.6254C568.538 32.1804 568.769 34.086 569.007 36.0985C570.288 46.7163 570.235 48.876 569.357 49.6516C568.492 51.0891 567.878 61.5598 569.495 63.8866C571.437 66.6881 569.68 89.1005 568.835 98.6083C568.829 98.7019 568.829 98.7888 568.835 98.8824C568.961 100.38 571.958 135.59 572.051 138.171C572.136 140.585 571.753 171.636 571.674 177.834C571.674 177.887 571.674 177.941 571.674 177.994C572.235 183.925 572.169 187.408 571.47 188.351C570.994 188.993 569.997 189.602 567.937 188.859C567.521 188.712 567.059 188.746 566.656 188.953C564.451 190.123 558.786 192.624 553.782 190.705C549.886 189.207 548.936 189.461 548.837 189.495C548.163 189.735 547.51 189.802 546.902 189.688C544.354 189.234 535.764 187.816 532.423 188.712C528.178 189.856 517.099 192.436 516.987 192.463C514.61 192.931 506.799 194.309 504.746 192.597C504.363 192.276 504.132 191.855 504.086 191.387C502.448 190.718 493.786 193.346 492.069 195.078C491.409 195.746 490.399 196 489.079 196H489.085ZM469.324 191.32C469.687 191.413 470.612 191.567 472.87 191.648C476.158 191.768 479.617 192.443 482.674 193.045C486.055 193.707 489.884 194.462 490.676 193.66C492.664 191.654 502.138 188.405 504.924 189.575C505.611 189.862 506.02 190.411 506.06 191.093C506.918 191.721 511.745 191.46 516.577 190.504C516.657 190.484 527.702 187.91 531.915 186.773C535.553 185.797 543.852 187.101 547.252 187.709C547.523 187.756 547.833 187.723 548.19 187.596C548.883 187.348 550.296 187.208 554.495 188.826C558.747 190.464 563.784 188.217 565.752 187.174C566.637 186.706 567.68 186.633 568.611 186.967C569.522 187.295 569.878 187.174 569.898 187.141C570.202 186.492 570.136 182.621 569.713 178.175C569.7 178.041 569.694 177.927 569.7 177.8C569.746 174.009 570.169 140.651 570.076 138.238C569.984 135.71 566.894 99.4173 566.868 99.0496C566.848 98.8423 566.848 98.6351 566.868 98.4278C568.228 83.1497 569.013 66.7817 567.878 65.0366C566.511 63.0642 566.445 58.464 566.524 55.8965C566.584 53.9575 566.841 49.471 567.937 48.2541C568.327 46.9503 567.462 39.8027 567.046 36.3392C566.736 33.765 566.557 32.274 566.557 31.6254C566.557 30.7161 566.907 29.4591 567.277 28.1352C567.594 27.0052 568.168 24.9525 567.997 24.324C567.165 24.197 564.359 25.0595 562.649 25.5877C560.516 26.243 558.496 26.8648 557.274 26.8648C554.911 26.8648 542.809 26.3968 540.405 26.2965C540.141 26.2831 539.89 26.2497 539.633 26.1828C533.942 24.6784 526.983 23.4281 525.141 24.2371C523.556 24.9392 518.103 24.6182 509.335 24.0432C502.58 23.5952 492.367 22.9266 491.072 23.8092C488.082 25.9221 471.609 27.032 469.74 27.1523L447.979 28.1887C447.107 28.2288 446.421 28.9509 446.421 29.8335V103.85C446.421 106.191 446.718 108.517 447.305 110.764C447.781 112.583 447.959 115.812 447.847 120.365C447.576 131.311 447.193 171.214 447.153 175.734C447.153 175.821 447.153 175.908 447.173 175.995L447.781 180.087C447.814 180.328 447.906 180.555 448.038 180.756C449.781 183.403 451.802 186.94 451.544 188.746C451.531 188.839 451.491 189.127 451.835 189.568C452.64 190.598 454.687 191.447 456.813 191.634C458.008 191.734 459.104 190.992 460.253 190.203C461.296 189.488 462.445 188.699 463.785 188.532C463.937 188.505 464.102 188.492 464.273 188.498C464.637 188.498 465.02 188.545 465.422 188.652C465.62 188.706 465.779 188.779 465.904 188.866C466.743 189.174 467.581 189.622 468.149 190.036C468.73 190.457 469.113 190.879 469.304 191.313L469.324 191.32Z" fill="black"/>
<path d="M488.802 119.964L472.441 121.976L468.981 122.398" fill="#FAEBCA"/>
<path d="M488.684 118.967L468.864 121.403L469.103 123.395L488.923 120.959L488.684 118.967Z" fill="black"/>
<path d="M471.449 121.893L470.078 141.79L472.054 141.93L473.424 122.033L471.449 121.893Z" fill="black"/>
<path d="M466.221 135.677L465.792 133.718C465.792 133.718 467.997 133.209 470.625 131.879C473.629 130.354 479.162 130.903 479.399 130.923L479.201 132.922C477.762 132.775 473.583 132.628 471.51 133.671C468.651 135.115 466.32 135.65 466.221 135.677Z" fill="black"/>
<path d="M484.774 145.492C484.51 145.492 484.226 145.465 483.936 145.398C482.833 145.164 482.067 144.636 481.671 143.834C480.978 142.436 481.73 140.778 482.014 140.15C482.457 139.173 485.058 136.606 486.161 135.543C486.761 134.894 488.306 133.931 490.049 134.667C490.089 134.68 490.122 134.7 490.162 134.714C490.056 133.483 489.917 132.581 489.765 132.16L489.666 131.892C489.409 131.163 489.396 131.116 487.131 130.361L483.427 132.668L482.391 130.963L486.88 128.161L487.316 128.308C490.518 129.378 490.954 129.579 491.528 131.217L491.621 131.471C492.017 132.554 492.189 134.961 492.268 136.8C493.152 138.164 493.727 139.795 493.727 140.684H491.746C491.746 140.377 491.575 139.815 491.297 139.207L488.696 142.376C488.227 143.613 486.933 145.492 484.774 145.492ZM488.775 136.419C488.095 136.419 487.58 136.94 487.554 136.967C485.923 138.545 484.048 140.511 483.81 140.992C483.652 141.34 483.176 142.403 483.44 142.931C483.586 143.219 484.008 143.366 484.345 143.433C486.062 143.794 486.808 141.774 486.887 141.547L486.946 141.373L487.065 141.226L490.234 137.368C489.924 136.96 489.594 136.646 489.29 136.519C489.112 136.445 488.94 136.412 488.775 136.412V136.419Z" fill="black"/>
<path d="M498.587 133.8L496.61 133.926L497.064 141.253L499.041 141.127L498.587 133.8Z" fill="black"/>
<path d="M497.292 130.575C496.671 130.575 496.46 130.22 496.367 129.598H496.341C496.341 129.598 496.334 129.431 496.321 129.15C496.308 128.983 496.301 128.803 496.288 128.616L496.235 127.606H496.242C496.242 127.566 496.242 127.519 496.235 127.472L498.216 127.365L498.302 129.05C498.302 129.117 498.308 129.191 498.308 129.271C498.308 129.391 498.322 129.471 498.322 129.498H498.308C498.282 129.98 498.124 130.535 497.391 130.575C497.358 130.575 497.325 130.575 497.298 130.575H497.292Z" fill="black"/>
<path d="M507.183 140.598L505.202 140.517L505.473 133.818C505.519 132.708 505.545 131.905 505.565 131.33L504.396 123.574L506.357 123.273L507.216 128.943C507.605 129.271 507.585 129.94 507.572 130.588C507.559 131.21 507.526 132.246 507.46 133.898L507.189 140.598H507.183Z" fill="black"/>
<path d="M518.004 141.674C516.71 141.674 515.693 141.099 514.901 140.658C514.577 140.477 514.274 140.303 513.996 140.196C512.597 139.641 512.597 137.361 512.993 135.115L512.702 133.724C512.907 133.677 513.111 133.63 513.316 133.583L513.389 133.403C513.62 132.955 515.693 128.983 517.317 127.466C517.608 127.198 518.486 126.376 519.338 126.951C519.978 127.385 520.044 128.255 519.555 129.612C519.238 130.434 518.182 133.109 517.595 133.871C517.185 134.406 516.149 134.854 515.006 135.202C514.755 136.612 514.683 137.95 514.855 138.384C515.211 138.538 515.548 138.725 515.871 138.912C516.782 139.427 517.561 139.869 518.651 139.594C520.453 139.146 521.147 138.785 521.153 138.779L522.091 140.544C522.005 140.591 521.193 141.019 519.126 141.54C518.73 141.64 518.36 141.681 518.004 141.681V141.674Z" fill="black"/>
<path d="M528.415 142.002C526.963 142.002 525.741 141.213 525.24 140.892C523.774 139.95 524.17 138.225 524.52 136.7C524.659 136.098 524.797 135.483 524.863 134.875C525.108 132.434 530.079 129.82 531.987 128.904L532.489 121.121L534.463 121.248L533.783 131.792L534.516 138.659L534.054 139C533.961 139.067 531.73 140.719 530.29 141.514C529.65 141.869 529.01 142.002 528.409 142.002H528.415ZM531.835 131.217C529.128 132.642 526.91 134.326 526.831 135.075C526.758 135.811 526.593 136.526 526.448 137.155C526.25 138.024 526.019 139.014 526.303 139.201C527.61 140.043 528.521 140.21 529.346 139.756C530.297 139.227 531.703 138.238 532.43 137.716L531.802 131.839L531.842 131.217H531.835Z" fill="black"/>
<path d="M532.721 138.36L532.218 141.718L534.176 142.019L534.679 138.661L532.721 138.36Z" fill="black"/>
<path d="M548.066 118.771L542.097 139.922L544.001 140.473L549.97 119.322L548.066 118.771Z" fill="black"/>
<path d="M541.598 144.034L539.704 146.878L541.346 148L543.24 145.156L541.598 144.034Z" fill="black"/>
<path d="M521.206 36.9073L510.51 34.4668L504.938 34.6741C503.346 34.7944 501.775 35.122 500.263 35.6369L496.064 37.0677C496.064 37.0677 486.557 39.6286 481.974 55.0137C480.489 60.0016 479.868 62.4621 479.782 65.8654C479.637 71.3883 482.602 76.4498 484.061 79.3917C485.52 82.3337 491.99 86.5995 495.437 87.0274C506.925 88.465 509.421 88.6321 519.859 80.5953C530.297 72.5584 535.269 70.2583 536.352 66.3937C537.87 60.9711 534.556 54.1979 534.034 53.9305" fill="#FAEBCA"/>
<path d="M504.066 88.7925C501.689 88.7925 498.929 88.4782 495.318 88.0235C491.455 87.5421 484.761 83.0289 483.176 79.8463C483.018 79.5186 482.833 79.1709 482.641 78.7965C481.057 75.6941 478.653 71.007 478.785 65.8386C478.878 62.2614 479.538 59.7006 481.017 54.726C485.705 38.9866 495.39 36.2051 495.8 36.0981L499.933 34.6806C501.517 34.139 503.175 33.798 504.852 33.671L510.589 33.457L521.41 35.9309L520.975 37.89L510.404 35.4763L504.964 35.6769C503.492 35.7905 501.999 36.0981 500.567 36.5862L496.368 38.0171C496.222 38.0572 487.256 40.7116 482.905 55.3077C481.479 60.1084 480.839 62.5556 480.753 65.892C480.634 70.5457 482.892 74.9519 484.384 77.8738C484.582 78.2549 484.761 78.616 484.926 78.9436C486.207 81.5312 492.36 85.6366 495.542 86.031C506.661 87.4218 508.972 87.7093 519.245 79.7995C522.315 77.4325 524.956 75.5336 527.075 74.0092C532.159 70.3518 534.714 68.5131 535.381 66.1261C536.728 61.312 533.909 55.3144 533.367 54.6859C533.367 54.6859 533.433 54.7594 533.565 54.8263L534.463 53.0344C535.566 53.6027 538.894 60.9308 537.289 66.661C536.431 69.73 533.519 71.8294 528.224 75.6339C526.111 77.1517 523.49 79.0372 520.446 81.3841C513.058 87.0741 509.566 88.7791 504.046 88.7791L504.066 88.7925Z" fill="black"/>
<path d="M512.622 45.2188L499.933 49.3107L505.901 71.7164" fill="#FAEBCA"/>
<path d="M504.944 71.9764L498.731 48.6414L512.326 44.2686L512.92 46.1741L501.135 49.9719L506.859 71.4549L504.944 71.9764Z" fill="black"/>
<path d="M513.28 54.8667L498.611 60.1885L499.279 62.0768L513.948 56.755L513.28 54.8667Z" fill="black"/>
</g>
<g clip-path="url(#clip3_211_91)">
<path d="M808.705 22.1006L803.838 16.6212L811.999 9.55078L816.563 14.9305L808.705 22.1006Z" fill="#F0C466"/>
<path d="M808.688 22.3949L803.539 16.5997L812.02 9.25098L816.853 14.9464L808.692 22.3949H808.688ZM804.136 16.6413L808.722 21.8008L816.273 14.909L811.974 9.84503L804.132 16.6413H804.136Z" fill="black"/>
<path d="M805.944 4.99633L797.447 1.37402L792.612 12.4345L801.109 16.0568L805.944 4.99633Z" fill="#F0C466"/>
<path d="M801.213 16.3387L792.332 12.55L797.334 1.10938L806.214 4.898L801.213 16.3387ZM792.883 12.334L800.994 15.7903L805.663 5.10987L797.553 1.65357L792.883 12.334Z" fill="black"/>
<path d="M813.779 9.53271L800.242 3.76172L795.407 14.8222L808.944 20.5932L813.779 9.53271Z" fill="#F0C466"/>
<path d="M789.358 10.9043C789.19 10.9999 789.051 11.1286 788.967 11.3031C787.949 13.4301 781.765 26.1461 777.714 29.6896C773.86 33.0586 769.094 37.8484 767.925 39.0282C767.752 39.2027 767.521 39.2941 767.277 39.2858C765.194 39.2276 755.056 39.0905 749.423 41.8365C743.121 44.9064 734.14 48.6452 728.373 54.3863C722.714 60.0194 708.407 79.2242 707.873 79.9387C707.86 79.9553 707.852 79.9678 707.839 79.9803L687.436 103.904L661.266 136.884C661.266 136.884 656.727 142.455 655.671 146.373C654.611 150.29 657.484 157.668 657.787 159.172C658.077 160.609 666.483 171.223 667.261 172.203C667.299 172.253 667.341 172.295 667.391 172.336L681.156 183.507C681.21 183.549 681.265 183.586 681.328 183.615C682.435 184.147 693.2 189.285 696.212 189.144C699.388 188.995 709.522 189.294 711.491 188.392C713.46 187.491 729.037 167.31 729.037 167.31L776.99 109.442C776.99 109.442 777.02 109.404 777.032 109.388C777.503 108.711 786.502 95.7164 787.469 93.3028C788.437 90.8892 793.068 80.0177 792.829 76.5448C792.597 73.1965 790.91 60.7173 790.788 59.8241C790.784 59.7909 790.776 59.7577 790.767 59.7244L790.014 56.8248C789.968 56.6378 789.981 56.4426 790.061 56.2681L791.966 51.9187C791.983 51.8855 792 51.8522 792.017 51.819L799.644 39.1279C799.677 39.0739 799.711 39.0241 799.757 38.9784L808.718 29.4611L812.979 24.8666C813.029 24.8126 813.072 24.7544 813.105 24.6921C813.353 24.231 814.329 22.2577 813.051 22.0334C811.258 21.7218 806.219 19.0881 805.348 18.6768C802.883 17.5136 799.437 14.7968 799.648 15.0336C799.77 15.1748 795.887 11.8349 794.999 9.69129C794.612 8.76075 792.698 7.96314 791.722 7.61004C791.348 7.47295 790.936 7.60173 790.704 7.9216C790.435 8.29548 790.128 8.8646 790.065 9.57082C789.989 10.4183 789.619 10.7714 789.362 10.9126L789.358 10.9043Z" fill="#4D8895"/>
<path d="M696.094 189.764C692.838 189.764 683.011 185.115 681.05 184.172C680.945 184.122 680.844 184.06 680.756 183.985L666.996 172.814C666.907 172.744 666.836 172.669 666.768 172.586C664.594 169.848 657.476 160.796 657.173 159.293C657.114 159.006 656.937 158.433 656.714 157.706C655.831 154.827 654.182 149.472 655.061 146.207C656.142 142.21 660.589 136.723 660.774 136.49L686.936 103.514L707.351 79.5735C707.965 78.751 722.239 59.596 727.918 53.9422C732.92 48.9613 740.303 45.4676 746.234 42.6594C747.248 42.1816 748.22 41.7205 749.137 41.2719C754.917 38.4553 765.27 38.6007 767.289 38.6589C767.34 38.6589 767.42 38.6339 767.466 38.5882C768.804 37.234 773.465 32.5605 777.284 29.2164C781.289 25.7102 787.671 12.5248 788.386 11.0293C788.517 10.7551 788.744 10.5225 789.034 10.3563C789.24 10.24 789.383 9.92845 789.421 9.50057C789.501 8.64481 789.875 7.96352 790.174 7.54395C790.565 6.99559 791.285 6.77957 791.924 7.00805C793.981 7.75166 795.205 8.57003 795.567 9.43826C796.316 11.2453 799.58 14.174 799.984 14.5022C800.144 14.5936 800.329 14.7266 800.544 14.8844C801.536 15.5989 803.854 17.2772 805.6 18.0998C805.747 18.1704 806.021 18.3033 806.374 18.4819C807.981 19.2837 811.738 21.1572 813.139 21.4023C813.732 21.5062 814.018 21.851 814.148 22.121C814.573 22.9809 814.01 24.2729 813.639 24.9666C813.58 25.0746 813.509 25.1785 813.421 25.2699L809.159 29.8644L800.195 39.3859C800.195 39.3859 800.173 39.4149 800.161 39.4274L792.538 52.1185L790.62 56.497C790.599 56.5468 790.595 56.6008 790.607 56.6507L791.36 59.5503C791.373 59.6043 791.386 59.6666 791.394 59.7248C791.579 61.0915 793.207 73.1761 793.438 76.487C793.64 79.3949 790.864 86.6107 788.42 92.5762C788.264 92.9584 788.134 93.2782 788.037 93.515C787.09 95.8704 779.123 107.427 777.533 109.721C777.503 109.762 777.478 109.791 777.453 109.824L729.504 167.688C726.9 171.061 713.741 188.019 711.735 188.941C710.309 189.597 705.849 189.668 700.17 189.697C698.521 189.705 697.095 189.714 696.22 189.751C696.174 189.751 696.123 189.751 696.073 189.751L696.094 189.764ZM765.585 39.8844C761.955 39.8844 754.265 40.1668 749.701 42.3935C748.779 42.8421 747.803 43.3033 746.785 43.7851C740.942 46.5518 733.669 49.9957 728.818 54.8187C723.202 60.4102 708.983 79.4905 708.382 80.3005C708.365 80.3254 708.348 80.3462 708.323 80.3711L687.92 104.295L661.767 137.259C661.716 137.321 657.295 142.78 656.281 146.523C655.49 149.443 657.072 154.578 657.922 157.336C658.166 158.125 658.338 158.694 658.41 159.039C658.624 159.957 663.273 166.159 667.761 171.805C667.774 171.817 667.782 171.83 667.799 171.842L681.559 183.013C681.559 183.013 681.589 183.034 681.606 183.042C685.93 185.123 693.868 188.617 696.182 188.509C697.087 188.467 698.525 188.459 700.187 188.451C704.07 188.434 709.934 188.405 711.221 187.811C712.576 187.167 722.559 174.655 728.532 166.915L776.498 109.031C780.01 103.959 786.14 94.9067 786.88 93.0539C786.977 92.813 787.107 92.4889 787.267 92.1067C788.672 88.6754 792.404 79.5611 792.197 76.5701C791.97 73.2965 790.346 61.2494 790.161 59.8868L789.4 56.9622C789.316 56.6465 789.345 56.3059 789.476 56.0026L791.381 51.6532C791.407 51.595 791.436 51.541 791.47 51.487L799.097 38.7918C799.151 38.7004 799.219 38.6132 799.29 38.5384L808.25 29.0211L812.508 24.4307C812.508 24.4307 812.533 24.4017 812.541 24.3851C813.046 23.4462 813.126 22.7732 813.029 22.6611C813.029 22.6611 813.008 22.6444 812.937 22.632C811.355 22.3578 807.619 20.4926 805.823 19.5953C805.478 19.4249 805.217 19.292 805.074 19.2255C803.223 18.3532 800.922 16.6915 799.816 15.8939C799.572 15.7152 799.399 15.5948 799.336 15.5532L799.349 15.5366C799.298 15.5075 799.244 15.4701 799.185 15.4286L799.176 15.4369L799.147 15.4037C797.902 14.5147 795.071 11.4946 794.419 9.92014C794.267 9.55042 793.413 8.87744 791.508 8.18785C791.402 8.15046 791.289 8.18785 791.221 8.27508C791.011 8.57003 790.746 9.03946 790.696 9.62104C790.59 10.7718 790.014 11.2619 789.678 11.4489C789.631 11.4738 789.568 11.5195 789.543 11.5694C788.361 14.0453 782.244 26.5619 778.138 30.1552C774.348 33.4703 769.712 38.1188 768.383 39.4648C768.093 39.7597 767.689 39.9259 767.264 39.9093C766.927 39.901 766.347 39.8885 765.59 39.8885L765.585 39.8844Z" fill="black"/>
<path d="M796.812 1.28773C796.858 1.86932 797.115 2.72093 797.54 3.31498C802.045 9.64597 801.734 8.47033 802.416 9.29286C802.66 9.58366 802.958 9.82045 803.299 9.99492C804.805 10.7718 808.785 13.4886 811.713 14.3984C814.611 15.2998 817.148 14.8803 817.8 14.3984C818.452 13.9165 818.359 12.9901 818.124 12.475C817.871 11.9183 811.368 6.06505 810.417 5.22591C810.341 5.15944 809.967 4.92265 809.878 4.8728C808.894 4.34106 802.605 0.972012 800.514 0.456891C799.673 0.249182 799.042 0.195177 798.579 0.211794C798.057 0.228411 796.682 0.793381 796.808 1.29188C797.044 2.21412 797.418 3.09481 797.418 3.09481" fill="#F0C466"/>
<path d="M815.137 15.1341C814.102 15.1341 812.894 14.9846 811.653 14.5982C809.516 13.9335 806.883 12.3508 804.956 11.1959C804.237 10.7639 803.619 10.3942 803.202 10.1781C802.828 9.98705 802.508 9.73365 802.256 9.42208C802.104 9.24345 802.012 9.17283 801.885 9.07313C801.452 8.74495 800.8 8.2506 797.371 3.43174C796.913 2.78783 796.656 1.90715 796.606 1.31725C796.581 1.20924 796.589 1.04307 796.732 0.856134C797.077 0.403326 798.095 0.0128321 798.579 -0.00378468C799.147 -0.0204015 799.816 0.0626825 800.569 0.249621C802.664 0.768896 808.776 4.03409 809.983 4.6863C810.067 4.732 810.467 4.98125 810.564 5.06433C810.64 5.1308 818.018 11.7235 818.321 12.384C818.578 12.949 818.687 13.9959 817.93 14.5567C817.497 14.8765 816.462 15.1258 815.137 15.1258V15.1341ZM797.599 3.02047C797.636 3.08278 797.674 3.14094 797.716 3.1991C801.107 7.96396 801.755 8.45416 802.142 8.7491C802.281 8.85296 802.399 8.94435 802.579 9.16452C802.798 9.43039 803.076 9.64641 803.4 9.81258C803.829 10.0328 804.451 10.4066 805.179 10.8428C807.085 11.9852 809.697 13.5514 811.784 14.2036C814.569 15.0718 817.063 14.6896 817.682 14.2368C818.237 13.8255 818.136 12.9947 817.943 12.5668C817.694 12.0683 811.986 6.88803 810.29 5.38421C810.24 5.33851 809.882 5.11003 809.79 5.06018C809.058 4.66553 802.567 1.18016 800.476 0.665041C799.761 0.48641 799.13 0.403326 798.6 0.424097C798.225 0.43656 797.329 0.781358 797.077 1.11785C797.056 1.14693 797.018 1.20509 797.027 1.24663C797.258 2.14393 797.624 3.01216 797.628 3.02047L797.607 3.02878L797.599 3.02047Z" fill="black"/>
<path d="M810.913 21.2236C810.913 21.2236 808.6 21.3648 807.443 21.2236C806.286 21.0823 802.424 18.8224 800.88 18.0622C799.336 17.302 796.059 14.3608 795.033 12.7075C794.002 11.0541 793.943 9.03516 793.943 9.03516L797.696 13.6754L803.627 17.7216L807.296 19.6325L810.918 21.2236H810.913Z" fill="white"/>
<path d="M786.467 57.9007C786.467 57.9007 786.333 57.7221 786.312 58.0461C786.253 58.8977 782.551 72.1122 782.551 72.1122C782.551 72.1122 780.41 80.1547 778.268 84.2591C776.127 88.3634 770.776 99.0438 769.274 100.776C767.777 102.513 747.803 129.739 744.517 133.482C741.232 137.225 730.858 150.523 729.941 151.038C729.024 151.553 711.949 162.138 711.292 163.043C710.636 163.949 706.829 166.529 694.482 166.4C682.135 166.271 675.308 165.494 670.975 163.82C668.097 162.707 664.408 161.137 662.254 160.206C661.77 159.998 661.324 160.559 661.644 160.975C663.836 163.837 668.409 169.752 669.401 170.533C670.714 171.568 679.645 180.213 686.212 182.41C692.778 184.604 698.689 184.861 700.262 184.604C701.84 184.346 708.667 181.505 709.454 181.118C710.241 180.732 715.365 175.697 719.567 171.439C723.77 167.181 731.779 158.532 734.274 155.948C736.769 153.368 745.569 143.17 745.569 143.17C745.569 143.17 749.376 138.912 757.781 128.842C766.187 118.772 772.623 110.385 775.774 106.513C778.925 102.641 781.289 100.963 782.736 97.9928C784.179 95.0226 789.118 85.9124 789.774 81.8496C790.43 77.7868 790.889 68.4357 790.3 66.3752C789.711 64.3148 786.467 57.909 786.467 57.909V57.9007Z" fill="#4C6B85"/>
<path d="M789.837 19.2212C791.44 10.2025 788.196 20.4426 787.662 20.8704C786.674 21.6639 786.812 22.8645 788.335 26.3041C790.397 30.961 792.723 33.3663 793.114 35.3146C793.505 37.2629 794.704 39.9465 793.918 42.4349C793.404 44.0592 793.236 45.9202 793.442 46.4104C793.989 47.6982 794.187 46.9754 794.2 46.9754C794.208 46.9754 794.2 46.9796 794.208 46.9754L802.802 35.273V35.2647C803.093 34.9656 809.706 27.9617 810.972 26.7611C812.322 25.4816 816.062 21.8176 809.235 21.5019C805.911 21.3482 804.75 20.0936 801.532 18.6812C797.851 17.061 795.693 13.4967 794.641 12.4416C793.867 11.6689 794.431 9.37994 793.211 8.7942C791.612 8.02152 791.453 7.17822 790.758 8.7942C790.291 9.8826 790.59 11.0582 790.826 11.8475C791.061 12.6368 790.262 12.9442 790.077 13.7626L789.837 19.2254V19.2212Z" fill="#4C6B85"/>
<path d="M805.629 27.1225C805.629 27.1225 802.483 31.4138 801.275 31.5509C800.068 31.6838 795.18 30.1011 795.18 30.1011C795.18 30.1011 790.472 27.0436 789.126 25.303C787.776 23.5624 787.995 22.125 787.995 22.125L791.179 16.7744L805.634 27.1308L805.629 27.1225Z" fill="#F0C466"/>
<path d="M801.12 31.7628C799.661 31.7628 795.307 30.3545 795.113 30.2922L795.063 30.2673C794.869 30.1427 790.313 27.1683 788.959 25.4235C787.57 23.6372 787.777 22.15 787.785 22.0877L787.81 22.0129L791.113 16.4629L805.925 27.0727L805.803 27.2389C805.474 27.6875 802.563 31.6091 801.301 31.7503C801.247 31.7545 801.188 31.7586 801.125 31.7586L801.12 31.7628ZM795.273 29.91C796.64 30.3545 800.304 31.4512 801.255 31.3432C802.042 31.256 804.12 28.805 805.34 27.1683L791.243 17.0694L788.201 22.1874C788.185 22.4159 788.138 23.6829 789.295 25.1742C790.561 26.8027 794.915 29.6732 795.277 29.91H795.273Z" fill="black"/>
<path d="M807.527 27.6957C806.832 27.6957 805.726 27.3176 804.014 25.9177L799.067 22.2661C798.789 22.0792 792.134 17.5761 791.112 16.2799C790.047 14.9298 790.422 13.5008 790.439 13.4385L790.847 13.5465C790.847 13.5465 790.514 14.8426 791.444 16.0265C792.424 17.2686 799.243 21.884 799.311 21.9297L804.271 25.5937C806.408 27.3384 807.438 27.3675 807.867 27.2304C808.2 27.1224 808.296 26.8773 808.326 26.7776L808.734 26.8815C808.641 27.2263 808.368 27.5046 807.998 27.6251C807.867 27.6666 807.712 27.6957 807.527 27.6957Z" fill="black"/>
<g opacity="0.8">
<path d="M744.909 62.7078C744.909 62.7078 739.264 92.1735 720.161 107.719C701.062 123.264 673.146 135.975 670.437 138.543C666.516 142.257 667.467 149.684 669.444 154.291C673.053 162.708 685.88 175.964 694.806 172.458C700.881 170.073 701.76 168.071 704.911 164.361C708.062 160.651 717.17 143.848 719.357 140.674C721.545 137.5 735.595 119.109 739.865 115.686C744.135 112.263 758.871 100.931 762.001 98.4215C765.131 95.9123 771.761 88.9374 771.429 88.4888C771.096 88.0401 768.534 75.3698 766.174 71.5604C763.814 67.751 758.791 61.5654 758.791 61.5654L756.482 65.7279C756.482 65.7279 746.196 61.6859 744.913 62.712L744.909 62.7078Z" fill="#EADBC1"/>
<path d="M691.677 173.649C688.118 173.649 683.995 171.83 679.734 168.32C675.085 164.498 670.824 159.085 668.867 154.532C667.74 151.906 667.096 148.824 667.101 146.078C667.105 142.647 668.11 139.884 670.003 138.089C670.916 137.225 674.185 135.456 679.132 132.78C689.451 127.197 706.724 117.85 719.765 107.236C738.464 92.0194 744.24 62.8819 744.295 62.5911L744.337 62.3668L744.518 62.2214C745.826 61.1745 752.174 63.3804 756.196 64.9424L758.695 60.4434L759.288 61.1703C759.494 61.4237 764.365 67.4349 766.717 71.2318C768.463 74.0484 770.23 81.2226 771.285 85.5056C771.588 86.7311 771.874 87.8943 771.975 88.1602C772.266 88.5631 772.35 89.0201 768.475 93.0995C766.233 95.4591 763.848 97.7356 762.401 98.8946C760.954 100.054 757.003 103.119 752.822 106.36C748.014 110.09 742.562 114.315 740.269 116.155C736.066 119.52 721.982 137.961 719.883 141.01C719.088 142.169 717.317 145.226 715.272 148.77C711.772 154.831 707.418 162.371 705.399 164.747C704.924 165.308 704.499 165.831 704.099 166.321C701.84 169.1 700.347 170.937 695.046 173.022C693.999 173.433 692.871 173.637 691.681 173.637L691.677 173.649ZM745.46 63.1602C744.753 66.4836 738.519 93.5855 720.564 108.2C707.431 118.889 690.095 128.269 679.738 133.877C675.228 136.316 671.669 138.243 670.878 138.995C667.067 142.605 668.283 149.975 670.033 154.05C673.575 162.308 686.086 175.22 694.579 171.88C699.573 169.919 700.906 168.278 703.115 165.557C703.519 165.058 703.948 164.531 704.431 163.962C706.375 161.673 710.7 154.183 714.174 148.168C716.236 144.603 718.011 141.525 718.835 140.324C721.023 137.142 735.09 118.71 739.47 115.204C741.775 113.36 747.227 109.126 752.039 105.396C756.217 102.156 760.163 99.094 761.601 97.9391C764.597 95.538 770.057 89.7471 770.764 88.5382C770.646 88.1975 770.469 87.4913 770.053 85.8089C769.081 81.8707 767.276 74.5385 765.632 71.8882C763.793 68.9221 760.276 64.4355 758.884 62.6908L756.764 66.5126L756.246 66.3091C751.884 64.5976 746.726 62.9733 745.464 63.1644L745.46 63.1602Z" fill="black"/>
</g>
<path d="M704.086 164.531L704.032 164.277C703.018 159.616 701.322 151.819 693.565 142.676C686.027 133.786 671.753 139.132 671.61 139.186L671 137.637C671.156 137.574 674.9 136.149 679.704 135.896C686.157 135.551 691.399 137.529 694.857 141.608C702.879 151.067 704.629 159.118 705.676 163.928L705.731 164.182L704.086 164.531Z" fill="black"/>
<path d="M710.876 153.967C710.859 153.909 708.979 148.188 706.173 143.448C702.656 137.512 695.786 134.654 695.719 134.625L694.335 134.06L695.542 133.187C695.774 133.021 718.553 116.554 720.202 115.229C722.255 113.584 740.458 95.3136 742.448 91.0099C743.453 88.8331 747.172 81.8208 751.097 74.6964C758.32 61.5899 758.783 61.4237 759.195 61.2783L759.771 62.8403C759.923 62.7863 760.003 62.7032 760.007 62.6991C758.757 63.9827 746.154 87.0011 743.983 91.6995C741.754 96.5267 722.773 115.312 721.267 116.521C719.782 117.713 702.383 130.3 697.675 133.707C699.98 134.882 704.755 137.761 707.628 142.609C710.531 147.507 712.403 153.215 712.483 153.456L710.88 153.963L710.876 153.967Z" fill="black"/>
<path d="M724.279 110.348C724.279 110.348 724.498 111.129 724.347 111.74C724.195 112.351 723.678 113.368 723.733 113.576C723.787 113.784 724.784 114.436 725.083 114.914C725.382 115.392 726.29 116.605 726.745 116.821C727.199 117.037 730.35 117.124 730.413 117.377C730.476 117.631 731.179 116.372 731.591 116.476C732.003 116.58 732.962 116.821 733.509 116.347C734.056 115.873 734.359 114.906 734.683 114.436C735.007 113.967 737.497 111.715 737.8 111.1C738.103 110.485 738.305 109.858 738.141 109.588C737.977 109.318 737.674 108.014 737.67 107.179C737.665 106.344 737.703 105.451 737.556 105.326C737.409 105.201 735.545 104.881 735.347 104.724C735.15 104.566 734.317 103.914 734.153 103.386C733.989 102.858 733.227 101.944 732.832 101.807C732.436 101.67 730.783 102.389 730.404 102.522C730.026 102.655 728.654 102.617 728.377 102.588C728.099 102.559 727.603 103.066 727.35 103.664C727.098 104.262 726.77 104.906 726.585 105.151C726.4 105.397 725.306 106.09 725.041 106.526C724.776 106.963 724.136 107.997 724.153 108.57C724.17 109.144 724.279 110.344 724.279 110.344V110.348Z" fill="#FC5375"/>
<path d="M730.459 117.825C730.425 117.825 730.387 117.825 730.345 117.813C730.253 117.792 730.173 117.742 730.114 117.676C729.845 117.601 729.016 117.526 728.457 117.472C727.333 117.368 726.816 117.31 726.563 117.19C725.924 116.886 724.902 115.408 724.725 115.125C724.599 114.922 724.237 114.614 723.972 114.39C723.568 114.049 723.387 113.887 723.328 113.679C723.265 113.443 723.371 113.156 723.619 112.529C723.741 112.225 723.875 111.876 723.938 111.631C724.044 111.22 723.93 110.643 723.875 110.452L723.863 110.377C723.859 110.327 723.749 109.16 723.737 108.574C723.72 107.959 724.208 107.083 724.687 106.302C724.889 105.973 725.365 105.604 725.789 105.275C725.966 105.138 726.206 104.951 726.256 104.889C726.404 104.698 726.711 104.096 726.967 103.493C727.203 102.949 727.804 102.106 728.423 102.168C728.78 102.201 730.017 102.214 730.265 102.122C730.333 102.098 730.438 102.056 730.568 102.006C731.851 101.499 732.575 101.267 732.975 101.408C733.538 101.603 734.371 102.65 734.556 103.257C734.594 103.377 734.767 103.722 735.587 104.374C735.734 104.436 736.294 104.561 736.634 104.64C737.501 104.835 737.699 104.889 737.833 105.005C738.082 105.221 738.09 105.612 738.086 106.713V107.17C738.086 107.959 738.384 109.172 738.494 109.363C738.578 109.5 738.839 109.924 738.174 111.27C737.981 111.665 737.249 112.404 736.155 113.488C735.68 113.962 735.137 114.498 735.027 114.656C734.931 114.797 734.826 115.013 734.712 115.246C734.472 115.732 734.203 116.284 733.786 116.645C733.101 117.24 732.058 117.007 731.553 116.882C731.431 116.957 731.204 117.219 731.094 117.352C730.867 117.613 730.699 117.813 730.455 117.813L730.459 117.825ZM724.17 113.459C724.254 113.542 724.401 113.667 724.519 113.767C724.86 114.053 725.247 114.381 725.44 114.693C725.798 115.266 726.627 116.301 726.925 116.442C727.094 116.513 727.96 116.591 728.532 116.645C729.5 116.737 730.063 116.795 730.392 116.895C730.413 116.87 730.429 116.849 730.451 116.828C730.787 116.438 731.199 115.948 731.696 116.072C732.011 116.151 732.848 116.363 733.235 116.031C733.526 115.781 733.757 115.308 733.959 114.897C734.085 114.639 734.207 114.394 734.338 114.203C734.485 113.991 734.901 113.576 735.566 112.915C736.247 112.242 737.274 111.22 737.425 110.917C737.779 110.202 737.796 109.858 737.775 109.791C737.543 109.417 737.253 107.996 737.249 107.182V106.717C737.249 106.351 737.249 105.874 737.223 105.641C737.038 105.591 736.706 105.516 736.449 105.458C735.52 105.246 735.242 105.176 735.086 105.051C734.321 104.445 733.887 103.942 733.753 103.51C733.614 103.057 732.924 102.28 732.697 102.201C732.52 102.176 731.914 102.38 730.88 102.791C730.737 102.845 730.623 102.891 730.551 102.916C730.068 103.09 728.65 103.028 728.377 103.011C728.25 103.065 727.931 103.385 727.737 103.834C727.51 104.366 727.157 105.097 726.921 105.408C726.82 105.541 726.631 105.691 726.303 105.944C725.991 106.185 725.52 106.551 725.398 106.746C724.843 107.652 724.561 108.262 724.569 108.566C724.582 109.068 724.67 110.078 724.687 110.277C724.738 110.468 724.906 111.203 724.746 111.839C724.67 112.134 724.532 112.491 724.393 112.836C724.313 113.04 724.203 113.31 724.161 113.459H724.17Z" fill="black"/>
<path d="M729.857 114.776C729.281 114.776 728.713 114.664 728.183 114.427C727.207 113.991 726.471 113.168 726.101 112.109C725.625 110.751 725.794 109.143 726.559 107.693C727.968 105.022 730.989 103.693 733.29 104.727C734.266 105.163 735.002 105.986 735.372 107.045C735.848 108.403 735.679 110.011 734.914 111.461C733.828 113.517 731.788 114.78 729.857 114.78V114.776ZM731.607 104.582C729.752 104.582 727.788 105.803 726.74 107.789C726.004 109.189 725.84 110.738 726.294 112.043C726.643 113.044 727.342 113.825 728.267 114.24C730.471 115.229 733.366 113.941 734.725 111.365C735.461 109.965 735.625 108.416 735.17 107.112C734.821 106.11 734.119 105.329 733.202 104.914C732.697 104.69 732.158 104.582 731.612 104.582H731.607Z" fill="black"/>
<path d="M729.815 109.155C729.996 108.536 727.77 109.201 727.526 110.185C727.518 110.227 727.51 110.268 727.501 110.31C727.303 111.486 728.38 112.524 729.621 112.429C730.888 112.333 732.617 112.134 733.34 111.328C734.072 110.518 733.529 109.163 733.529 109.163C733.571 109.139 732.663 104.959 730.105 106.226C728.919 106.816 729.806 109.155 729.806 109.155H729.815Z" fill="#FC5375"/>
<path d="M729.47 112.591C728.856 112.591 728.258 112.334 727.846 111.889C727.434 111.445 727.249 110.859 727.346 110.286C727.354 110.24 727.362 110.194 727.375 110.148C727.531 109.521 728.347 109.027 729.041 108.836C729.192 108.794 729.365 108.761 729.525 108.761C729.323 108.017 729.074 106.572 730.042 106.09C731.203 105.512 732.259 105.932 733.016 107.265C733.222 107.631 733.66 108.67 733.677 109.11H733.685C733.71 109.164 734.253 110.56 733.466 111.432C732.722 112.255 731.031 112.479 729.638 112.583C729.584 112.583 729.529 112.587 729.474 112.587L729.47 112.591ZM729.541 109.068C729.445 109.068 729.289 109.085 729.074 109.151C728.469 109.334 727.796 109.758 727.682 110.223C727.674 110.261 727.665 110.298 727.661 110.335C727.581 110.813 727.737 111.303 728.082 111.681C728.469 112.097 729.041 112.321 729.613 112.275C730.947 112.176 732.558 111.968 733.227 111.224C733.887 110.493 733.395 109.235 733.391 109.218L733.34 109.097L733.365 109.081C733.285 108.67 732.802 106.929 731.758 106.335C731.287 106.069 730.757 106.077 730.181 106.364C729.34 106.784 729.701 108.279 729.882 108.861C729.882 108.861 729.891 108.869 729.895 108.873C729.941 108.919 730.013 109.023 729.966 109.193L729.836 109.646L729.668 109.205C729.668 109.205 729.647 109.143 729.621 109.068C729.6 109.068 729.575 109.064 729.541 109.064V109.068Z" fill="black"/>
<g opacity="0.42">
<path d="M667.732 162.516C667.732 162.516 689.393 175.236 691.917 178.315C694.441 181.393 701.588 186.436 694.739 184.679C687.891 182.926 667.16 168.033 665.961 166.512C664.762 164.992 661.026 159.67 662.259 160.202C663.491 160.734 667.736 162.516 667.736 162.516H667.732Z" fill="#2D2747"/>
</g>
<path d="M683.015 160.14L682.38 159.55C682.199 159.38 677.862 155.359 674.501 150.806C671.026 146.099 671.001 138.543 671.005 138.223H672.688C672.688 138.297 672.713 145.567 675.864 149.825C678.392 153.248 681.577 156.447 682.906 157.735L695.379 143.594L696.65 144.687L683.024 160.136L683.015 160.14Z" fill="black"/>
</g>
<defs>
<clipPath id="clip0_211_91">
<rect width="167.223" height="105.127" fill="white" transform="translate(0 30.291)"/>
</clipPath>
<clipPath id="clip1_211_91">
<rect width="115.296" height="170.164" fill="white" transform="translate(247.313 24.0547)"/>
</clipPath>
<clipPath id="clip2_211_91">
<rect width="127.617" height="174.618" fill="white" transform="translate(444.46 21.3818)"/>
</clipPath>
<clipPath id="clip3_211_91">
<rect width="163.702" height="189.764" fill="white" transform="translate(654.809)"/>
</clipPath>
</defs>
</svg>
