<?xml version="1.0" encoding="UTF-8"?><svg id="Layer_2" xmlns="http://www.w3.org/2000/svg" width="389.14" height="456.8" viewBox="0 0 389.14 456.8"><defs><style>.cls-1{fill:#4d8895;}.cls-2{fill:#f0c466;}.cls-3{fill:#4c6b85;}.cls-4{fill:#fff;}.cls-5{fill:#eadbc1;}.cls-6{fill:#fc5375;}.cls-7{opacity:.8;}.cls-8{opacity:.42;}.cls-9{fill:#2d2747;}</style></defs><polygon class="cls-2" points="365.83 53.2 354.26 40.01 373.66 22.99 384.51 35.94 365.83 53.2"/><path d="M365.79,53.91l-12.24-13.95,20.16-17.69,11.49,13.71-19.4,17.93ZM354.97,40.06l10.9,12.42,17.95-16.59-10.22-12.19-18.64,16.36Z"/><rect class="cls-2" x="332.41" y="6.5" width="22" height="29" transform="translate(36.46 -134.41) rotate(23.35)"/><path d="M348.02,39.33l-21.11-9.12,11.89-27.54,21.11,9.12-11.89,27.54ZM328.22,29.69l19.28,8.32,11.1-25.71-19.28-8.32-11.1,25.71Z"/><rect class="cls-2" x="338.52" y="14.84" width="35.05" height="29" transform="translate(40.8 -138.74) rotate(23.35)"/><path class="cls-1" d="M319.84,26.25c-.4.23-.73.54-.93.96-2.42,5.12-17.12,35.73-26.75,44.26-9.16,8.11-20.49,19.64-23.27,22.48-.41.42-.96.64-1.54.62-4.95-.14-29.05-.47-42.44,6.14-14.98,7.39-36.33,16.39-50.04,30.21-13.45,13.56-47.46,59.79-48.73,61.51-.03.04-.05.07-.08.1l-48.5,57.59-62.21,79.39s-10.79,13.41-13.3,22.84c-2.52,9.43,4.31,27.19,5.03,30.81.69,3.46,20.67,29.01,22.52,31.37.09.12.19.22.31.32l32.72,26.89c.13.1.26.19.41.26,2.63,1.28,28.22,13.65,35.38,13.31,7.55-.36,31.64.36,36.32-1.81s41.71-50.75,41.71-50.75l113.99-139.3s.07-.09.1-.13c1.12-1.63,22.51-32.91,24.81-38.72s13.31-31.98,12.74-40.34c-.55-8.06-4.56-38.1-4.85-40.25-.01-.08-.03-.16-.05-.24l-1.79-6.98c-.11-.45-.08-.92.11-1.34l4.53-10.47c.04-.08.08-.16.12-.24l18.13-30.55c.08-.13.16-.25.27-.36l21.3-22.91,10.13-11.06c.12-.13.22-.27.3-.42.59-1.11,2.91-5.86-.13-6.4-4.26-.75-16.24-7.09-18.31-8.08-5.86-2.8-14.05-9.34-13.55-8.77.29.34-8.94-7.7-11.05-12.86-.92-2.24-5.47-4.16-7.79-5.01-.89-.33-1.87-.02-2.42.75-.64.9-1.37,2.27-1.52,3.97-.18,2.04-1.06,2.89-1.67,3.23Z"/><path d="M98.14,456.8c-7.74,0-31.1-11.19-35.76-13.46-.25-.12-.49-.27-.7-.45l-32.71-26.89c-.21-.17-.38-.35-.54-.55-5.17-6.59-22.09-28.38-22.81-32-.14-.69-.56-2.07-1.09-3.82-2.1-6.93-6.02-19.82-3.93-27.68,2.57-9.62,13.14-22.83,13.58-23.39l62.19-79.38,48.53-57.63c1.46-1.98,35.39-48.09,48.89-61.7,11.89-11.99,29.44-20.4,43.54-27.16,2.41-1.15,4.72-2.26,6.9-3.34,13.74-6.78,38.35-6.43,43.15-6.29.12,0,.31-.06.42-.17,3.18-3.26,14.26-14.51,23.34-22.56,9.52-8.44,24.69-40.18,26.39-43.78.31-.66.85-1.22,1.54-1.62h0c.49-.28.83-1.03.92-2.06.19-2.06,1.08-3.7,1.79-4.71.93-1.32,2.64-1.84,4.16-1.29,4.89,1.79,7.8,3.76,8.66,5.85,1.78,4.35,9.54,11.4,10.5,12.19.38.22.82.54,1.33.92,2.36,1.72,7.87,5.76,12.02,7.74.35.17,1,.49,1.84.92,3.82,1.93,12.75,6.44,16.08,7.03,1.41.25,2.09,1.08,2.4,1.73,1.01,2.07-.33,5.18-1.21,6.85-.14.26-.31.51-.52.73l-10.13,11.06-21.31,22.92s-.05.07-.08.1l-18.12,30.55-4.56,10.54c-.05.12-.06.25-.03.37l1.79,6.98c.03.13.06.28.08.42.44,3.29,4.31,32.38,4.86,40.35.48,7-6.12,24.37-11.93,38.73-.37.92-.68,1.69-.91,2.26-2.25,5.67-21.19,33.49-24.97,39.01-.07.1-.13.17-.19.25l-113.98,139.29c-6.19,8.12-37.47,48.94-42.24,51.16-3.39,1.58-13.99,1.75-27.49,1.82-3.92.02-7.31.04-9.39.13-.11,0-.23,0-.35,0ZM263.33,96.01c-8.63,0-26.91.68-37.76,6.04-2.19,1.08-4.51,2.19-6.93,3.35-13.89,6.66-31.18,14.95-42.71,26.56-13.35,13.46-47.15,59.39-48.58,61.34-.04.06-.08.11-.14.17l-48.5,57.59-62.17,79.35c-.12.15-10.63,13.29-13.04,22.3-1.88,7.03,1.88,19.39,3.9,26.03.58,1.9.99,3.27,1.16,4.1.51,2.21,11.56,17.14,22.23,30.73.03.03.05.06.09.09l32.71,26.89s.07.05.11.07c10.28,5.01,29.15,13.42,34.65,13.16,2.15-.1,5.57-.12,9.52-.14,9.23-.04,23.17-.11,26.23-1.54,3.22-1.55,26.95-31.67,41.15-50.3l114.02-139.34c8.35-12.21,22.92-34,24.68-38.46.23-.58.54-1.36.92-2.28,3.34-8.26,12.21-30.2,11.72-37.4-.54-7.88-4.4-36.88-4.84-40.16l-1.81-7.04c-.2-.76-.13-1.58.18-2.31l4.53-10.47c.06-.14.13-.27.21-.4l18.13-30.56c.13-.22.29-.43.46-.61l21.3-22.91,10.12-11.05s.06-.07.08-.11c1.2-2.26,1.39-3.88,1.16-4.15,0,0-.05-.04-.22-.07-3.76-.66-12.64-5.15-16.91-7.31-.82-.41-1.44-.73-1.78-.89-4.4-2.1-9.87-6.1-12.5-8.02-.58-.43-.99-.72-1.14-.82l.03-.04c-.12-.07-.25-.16-.39-.26l-.02.02-.07-.08c-2.96-2.14-9.69-9.41-11.24-13.2-.36-.89-2.39-2.51-6.92-4.17-.25-.09-.52,0-.68.21-.5.71-1.13,1.84-1.25,3.24-.25,2.77-1.62,3.95-2.42,4.4-.11.06-.26.17-.32.29-2.81,5.96-17.35,36.09-27.11,44.74-9.01,7.98-20.03,19.17-23.19,22.41-.69.71-1.65,1.11-2.66,1.07-.8-.02-2.18-.05-3.98-.05Z"/><path class="cls-2" d="M337.56,3.1c.11,1.4.72,3.45,1.73,4.88,10.71,15.24,9.97,12.41,11.59,14.39.58.7,1.29,1.27,2.1,1.69,3.58,1.87,13.04,8.41,20,10.6,6.89,2.17,12.92,1.16,14.47,0s1.33-3.39.77-4.63c-.6-1.34-16.06-15.43-18.32-17.45-.18-.16-1.07-.73-1.28-.85-2.34-1.28-17.29-9.39-22.26-10.63-2-.5-3.5-.63-4.6-.59-1.24.04-4.51,1.4-4.21,2.6.56,2.22,1.45,4.34,1.45,4.34"/><path d="M381.12,36.43c-2.46,0-5.33-.36-8.28-1.29-5.08-1.6-11.34-5.41-15.92-8.19-1.71-1.04-3.18-1.93-4.17-2.45-.89-.46-1.65-1.07-2.25-1.82-.36-.43-.58-.6-.88-.84-1.03-.79-2.58-1.98-10.73-13.58-1.09-1.55-1.7-3.67-1.82-5.09-.06-.26-.04-.66.3-1.11.82-1.09,3.24-2.03,4.39-2.07,1.35-.04,2.94.16,4.73.61,4.98,1.25,19.51,9.11,22.38,10.68.2.11,1.15.71,1.38.91.18.16,17.72,16.03,18.44,17.62.61,1.36.87,3.88-.93,5.23-1.03.77-3.49,1.37-6.64,1.37ZM339.43,7.27c.09.15.18.29.28.43,8.06,11.47,9.6,12.65,10.52,13.36.33.25.61.47,1.04,1,.52.64,1.18,1.16,1.95,1.56,1.02.53,2.5,1.43,4.23,2.48,4.53,2.75,10.74,6.52,15.7,8.09,6.62,2.09,12.55,1.17,14.02.08,1.32-.99,1.08-2.99.62-4.02-.59-1.2-14.16-13.67-18.19-17.29-.12-.11-.97-.66-1.19-.78-1.74-.95-17.17-9.34-22.14-10.58-1.7-.43-3.2-.63-4.46-.58-.89.03-3.02.86-3.62,1.67-.05.07-.14.21-.12.31.55,2.16,1.42,4.25,1.43,4.27l-.05.02Z"/><path class="cls-4" d="M371.08,51.09s-5.5.34-8.25,0c-2.75-.34-11.93-5.78-15.6-7.61-3.67-1.83-11.46-8.91-13.9-12.89-2.45-3.98-2.59-8.84-2.59-8.84l8.92,11.17,14.1,9.74,8.72,4.6,8.61,3.83Z"/><path class="cls-3" d="M312.97,139.38s-.32-.43-.37.35c-.14,2.05-8.94,33.86-8.94,33.86,0,0-5.09,19.36-10.18,29.24-5.09,9.88-17.81,35.59-21.38,39.76-3.56,4.18-51.04,69.72-58.85,78.73s-32.47,41.02-34.65,42.26-42.77,26.72-44.33,28.9c-1.56,2.18-10.61,8.39-39.96,8.08-29.35-.31-45.58-2.18-55.88-6.21-6.84-2.68-15.61-6.46-20.73-8.7-1.15-.5-2.21.85-1.45,1.85,5.21,6.89,16.08,21.13,18.44,23.01,3.12,2.49,24.35,23.3,39.96,28.59,15.61,5.28,29.66,5.9,33.4,5.28,3.75-.62,19.98-7.46,21.85-8.39s14.05-13.05,24.04-23.3c9.99-10.25,29.03-31.07,34.96-37.29,5.93-6.21,26.85-30.76,26.85-30.76,0,0,9.05-10.25,29.03-34.49,19.98-24.24,35.28-44.43,42.77-53.75s13.11-13.36,16.55-20.51c3.43-7.15,15.17-29.08,16.73-38.86,1.56-9.78,2.65-32.29,1.25-37.25s-9.11-20.38-9.11-20.38Z"/><path class="cls-3" d="M320.98,46.27c3.81-21.71-3.9,2.94-5.17,3.97-2.35,1.91-2.02,4.8,1.6,13.08,4.9,11.21,10.43,17,11.36,21.69s3.78,11.15,1.91,17.14c-1.22,3.91-1.62,8.39-1.13,9.57,1.3,3.1,1.77,1.36,1.8,1.36.02,0,0,.01.02,0l20.43-28.17v-.02c.69-.72,16.41-17.58,19.42-20.47,3.21-3.08,12.1-11.9-4.13-12.66-7.9-.37-10.66-3.39-18.31-6.79-8.75-3.9-13.88-12.48-16.38-15.02-1.84-1.86-.5-7.37-3.4-8.78-3.8-1.86-4.18-3.89-5.83,0-1.11,2.62-.4,5.45.16,7.35s-1.34,2.64-1.78,4.61l-.57,13.15Z"/><path class="cls-2" d="M358.52,65.29s-7.48,10.33-10.35,10.66c-2.87.32-14.49-3.49-14.49-3.49,0,0-11.19-7.36-14.39-11.55-3.21-4.19-2.69-7.65-2.69-7.65l7.57-12.88,34.36,24.93Z"/><path d="M347.8,76.46c-3.47,0-13.82-3.39-14.28-3.54l-.12-.06c-.46-.3-11.29-7.46-14.51-11.66-3.3-4.3-2.81-7.88-2.79-8.03l.06-.18,7.85-13.36,35.21,25.54-.29.4c-.78,1.08-7.7,10.52-10.7,10.86-.13.01-.27.02-.42.02ZM333.9,72c3.25,1.07,11.96,3.71,14.22,3.45,1.87-.21,6.81-6.11,9.71-10.05l-33.51-24.31-7.23,12.32c-.04.55-.15,3.6,2.6,7.19,3.01,3.92,13.36,10.83,14.22,11.4Z"/><path d="M363.03,66.67c-1.65,0-4.28-.91-8.35-4.28l-11.76-8.79c-.66-.45-16.48-11.29-18.91-14.41-2.53-3.25-1.64-6.69-1.6-6.84l.97.26s-.79,3.12,1.42,5.97c2.33,2.99,18.54,14.1,18.7,14.21l11.79,8.82c5.08,4.2,7.53,4.27,8.55,3.94.79-.26,1.02-.85,1.09-1.09l.97.25c-.22.83-.87,1.5-1.75,1.79-.31.1-.68.17-1.12.17Z"/><g class="cls-7"><path class="cls-5" d="M214.18,150.95s-13.42,70.93-58.83,108.35c-45.4,37.42-111.76,68.02-118.2,74.2-9.32,8.94-7.06,26.82-2.36,37.91,8.58,20.26,39.07,52.17,60.29,43.73,14.44-5.74,16.53-10.56,24.02-19.49,7.49-8.93,29.14-49.38,34.34-57.02s38.6-51.91,48.75-60.15c10.15-8.24,45.18-35.52,52.62-41.56,7.44-6.04,23.2-22.83,22.41-23.91s-6.88-31.58-12.49-40.75c-5.61-9.17-17.55-24.06-17.55-24.06l-5.49,10.02s-24.45-9.73-27.5-7.26Z"/><path d="M87.64,418.01c-8.46,0-18.26-4.38-28.39-12.83-11.05-9.2-21.18-22.23-25.83-33.19-2.68-6.32-4.21-13.74-4.2-20.35.01-8.26,2.4-14.91,6.9-19.23,2.17-2.08,9.94-6.34,21.7-12.78,24.53-13.44,65.59-35.94,96.59-61.49,44.45-36.63,58.18-106.77,58.31-107.47l.1-.54.43-.35c3.11-2.52,18.2,2.79,27.76,6.55l5.94-10.83,1.41,1.75c.49.61,12.07,15.08,17.66,24.22,4.15,6.78,8.35,24.05,10.86,34.36.72,2.95,1.4,5.75,1.64,6.39.69.97.89,2.07-8.32,11.89-5.33,5.68-11,11.16-14.44,13.95-3.44,2.79-12.83,10.17-22.77,17.97-11.43,8.98-24.39,19.15-29.84,23.58-9.99,8.1-43.47,52.49-48.46,59.83-1.89,2.79-6.1,10.15-10.96,18.68-8.32,14.59-18.67,32.74-23.47,38.46-1.13,1.35-2.14,2.61-3.09,3.79-5.37,6.69-8.92,11.11-21.52,16.13-2.49.99-5.17,1.48-8,1.48ZM215.49,152.04c-1.68,8-16.5,73.24-59.18,108.42-31.22,25.73-72.43,48.31-97.05,61.81-10.72,5.87-19.18,10.51-21.06,12.32-9.06,8.69-6.17,26.43-2.01,36.24,8.42,19.88,38.16,50.96,58.35,42.92,11.87-4.72,15.04-8.67,20.29-15.22.96-1.2,1.98-2.47,3.13-3.84,4.62-5.51,14.9-23.54,23.16-38.02,4.9-8.58,9.12-15.99,11.08-18.88,5.2-7.66,38.64-52.03,49.05-60.47,5.48-4.44,18.44-14.63,29.88-23.61,9.93-7.8,19.31-15.17,22.73-17.95,7.12-5.78,20.1-19.72,21.78-22.63-.28-.82-.7-2.52-1.69-6.57-2.31-9.48-6.6-27.13-10.51-33.51-4.37-7.14-12.73-17.94-16.04-22.14l-5.04,9.2-1.23-.49c-10.37-4.12-22.63-8.03-25.63-7.57Z"/></g><path d="M117.14,396.06l-.13-.61c-2.41-11.22-6.44-29.99-24.88-52-17.92-21.4-51.85-8.53-52.19-8.4l-1.45-3.73c.37-.15,9.27-3.58,20.69-4.19,15.34-.83,27.8,3.93,36.02,13.75,19.07,22.77,23.23,42.15,25.72,53.73l.13.61-3.91.84Z"/><path d="M133.28,370.63c-.04-.14-4.51-13.91-11.18-25.32-8.36-14.29-24.69-21.17-24.85-21.24l-3.29-1.36,2.87-2.1c.55-.4,54.7-40.04,58.62-43.23,4.88-3.96,48.15-47.94,52.88-58.3,2.39-5.24,11.23-22.12,20.56-39.27,17.17-31.55,18.27-31.95,19.25-32.3l1.37,3.76c.36-.13.55-.33.56-.34-2.97,3.09-32.93,58.5-38.09,69.81-5.3,11.62-50.42,56.84-54,59.75-3.53,2.87-44.89,33.17-56.08,41.37,5.48,2.83,16.83,9.76,23.66,21.43,6.9,11.79,11.35,25.53,11.54,26.11l-3.81,1.22Z"/><path class="cls-6" d="M165.14,265.63s.52,1.88.16,3.35-1.59,3.92-1.46,4.42,2.5,2.07,3.21,3.22,2.87,4.07,3.95,4.59,8.57.73,8.72,1.34,1.82-2.42,2.8-2.17,3.26.83,4.56-.31,2.02-3.47,2.79-4.6,6.69-6.55,7.41-8.03,1.2-2.99.81-3.64-1.11-3.79-1.12-5.8.08-4.16-.27-4.46-4.78-1.07-5.25-1.45-2.45-1.95-2.84-3.22-2.2-3.47-3.14-3.8-4.87,1.4-5.77,1.72-4.16.23-4.82.16-1.84,1.15-2.44,2.59-1.38,2.99-1.82,3.58-3.04,2.26-3.67,3.31-2.15,3.54-2.11,4.92.3,4.27.3,4.27Z"/><path d="M179.83,283.63c-.08,0-.17,0-.27-.03-.22-.05-.41-.17-.55-.33-.64-.18-2.61-.36-3.94-.49-2.67-.25-3.9-.39-4.5-.68-1.52-.73-3.95-4.29-4.37-4.97-.3-.49-1.16-1.23-1.79-1.77-.96-.82-1.39-1.21-1.53-1.71-.15-.57.1-1.26.69-2.77.29-.73.61-1.57.76-2.16.25-.99-.02-2.38-.15-2.84l-.03-.18c-.01-.12-.27-2.93-.3-4.34-.04-1.48,1.12-3.59,2.26-5.47.48-.79,1.61-1.68,2.62-2.47.42-.33.99-.78,1.11-.93.35-.46,1.08-1.91,1.69-3.36.56-1.31,1.99-3.34,3.46-3.19.85.08,3.79.11,4.38-.11.16-.06.41-.16.72-.28,3.05-1.22,4.77-1.78,5.72-1.44,1.34.47,3.32,2.99,3.76,4.45.09.29.5,1.12,2.45,2.69.35.15,1.68.45,2.49.64,2.06.47,2.53.6,2.85.88.59.52.61,1.46.6,4.11v1.1c0,1.9.71,4.82.97,5.28.2.33.82,1.35-.76,4.59-.46.95-2.2,2.73-4.8,5.34-1.13,1.14-2.42,2.43-2.68,2.81-.23.34-.48.86-.75,1.42-.57,1.17-1.21,2.5-2.2,3.37-1.63,1.43-4.11.87-5.31.57-.29.18-.83.81-1.09,1.13-.54.63-.94,1.11-1.52,1.11ZM164.88,273.12c.2.2.55.5.83.74.81.69,1.73,1.48,2.19,2.23.85,1.38,2.82,3.87,3.53,4.21.4.17,2.46.36,3.82.49,2.3.22,3.64.36,4.42.6.05-.06.09-.11.14-.16.8-.94,1.78-2.12,2.96-1.82.75.19,2.74.7,3.66-.1.69-.6,1.24-1.74,1.72-2.73.3-.62.59-1.21.9-1.67.35-.51,1.34-1.51,2.92-3.1,1.62-1.62,4.06-4.08,4.42-4.81.84-1.72.88-2.55.83-2.71-.55-.9-1.24-4.32-1.25-6.28v-1.12c0-.88,0-2.03-.06-2.59-.44-.12-1.23-.3-1.84-.44-2.21-.51-2.87-.68-3.24-.98-1.82-1.46-2.85-2.67-3.17-3.71-.33-1.09-1.97-2.96-2.51-3.15-.42-.06-1.86.43-4.32,1.42-.34.13-.61.24-.78.3-1.15.42-4.52.27-5.17.23-.3.13-1.06.9-1.52,1.98-.54,1.28-1.38,3.04-1.94,3.79-.24.32-.69.68-1.47,1.29-.74.58-1.86,1.46-2.15,1.93-1.32,2.18-1.99,3.65-1.97,4.38.03,1.21.24,3.64.28,4.12.12.46.52,2.23.14,3.76-.18.71-.51,1.57-.84,2.4-.19.49-.45,1.14-.55,1.5ZM196.21,254.4h0Z"/><path d="M178.4,276.29c-1.37,0-2.72-.27-3.98-.84-2.32-1.05-4.07-3.03-4.95-5.58-1.13-3.27-.73-7.14,1.09-10.63,3.35-6.43,10.53-9.63,16-7.14h0c2.32,1.05,4.07,3.03,4.95,5.58,1.13,3.27.73,7.14-1.09,10.63-2.58,4.95-7.43,7.99-12.02,7.99ZM182.56,251.75c-4.41,0-9.08,2.94-11.57,7.72-1.75,3.37-2.14,7.1-1.06,10.24.83,2.41,2.49,4.29,4.69,5.29,5.24,2.38,12.12-.72,15.35-6.92,1.75-3.37,2.14-7.1,1.06-10.24-.83-2.41-2.5-4.29-4.68-5.29h0c-1.2-.54-2.48-.8-3.78-.8Z"/><path class="cls-6" d="M178.3,262.76c.43-1.49-4.86.11-5.44,2.48-.02.1-.04.2-.06.3-.47,2.83,2.09,5.33,5.04,5.1,3.01-.23,7.12-.71,8.84-2.65,1.74-1.95.45-5.21.45-5.21.1-.06-2.06-10.12-8.14-7.07-2.82,1.42-.71,7.05-.71,7.05Z"/><path d="M177.48,271.03c-1.46,0-2.88-.62-3.86-1.69s-1.42-2.48-1.19-3.86c.02-.11.04-.22.07-.33.37-1.51,2.31-2.7,3.96-3.16.36-.1.77-.18,1.15-.18-.48-1.79-1.07-5.27,1.23-6.43,2.76-1.39,5.27-.38,7.07,2.83.49.88,1.53,3.38,1.57,4.44h.02c.06.13,1.35,3.49-.52,5.59-1.77,1.98-5.79,2.52-9.1,2.77-.13,0-.26.01-.39.01ZM177.65,262.55c-.23,0-.6.04-1.11.2-1.44.44-3.04,1.46-3.31,2.58-.02.09-.04.18-.05.27-.19,1.15.18,2.33,1,3.24.92,1,2.28,1.54,3.64,1.43,3.17-.24,7-.74,8.59-2.53,1.57-1.76.4-4.79.39-4.83l-.12-.29.06-.04c-.19-.99-1.34-5.18-3.82-6.61-1.12-.64-2.38-.62-3.75.07-2,1.01-1.14,4.61-.71,6.01,0,0,.02.02.03.03.11.11.28.36.17.77l-.31,1.09-.4-1.06s-.05-.15-.11-.33c-.05,0-.11-.01-.19-.01Z"/><g class="cls-8"><path class="cls-9" d="M30.72,391.21s51.49,30.62,57.49,38.03c6,7.41,22.99,19.55,6.71,15.32-16.28-4.22-65.56-40.07-68.41-43.73s-11.73-16.47-8.8-15.19,13.02,5.57,13.02,5.57Z"/></g><path d="M67.05,385.49l-1.51-1.42c-.43-.41-10.74-10.09-18.73-21.05-8.26-11.33-8.32-29.52-8.31-30.29h4c0,.18.06,17.68,7.55,27.93,6.01,8.24,13.58,15.94,16.74,19.04l29.65-34.04,3.02,2.63-32.39,37.19Z"/></svg>