<?xml version="1.0" encoding="UTF-8"?><svg id="Layer_2" xmlns="http://www.w3.org/2000/svg" width="242.66" height="150.99" viewBox="0 0 242.66 150.99"><defs><style>.cls-1{fill:#faebca;}.cls-2{fill:#fff;}.cls-3{fill:#fc5375;}.cls-4{opacity:.29;}</style></defs><rect class="cls-1" x="1.5" y="2.7" width="239.66" height="146.79"/><path d="M242.66,150.99H0V1.2h242.66v149.79ZM3,147.99h236.66V4.2H3v143.79Z"/><rect x="50.73" y="-27.16" width="2" height="120.61" transform="translate(-3.97 59.08) rotate(-57.61)"/><path class="cls-3" d="M115.59,65.32c4.24-1.14-7.17-11.23-13.77-9.16-.28.09-.55.18-.82.29-7.57,2.98-10.02,12.52-5.27,19.13,4.83,6.71,11.85,15.63,19.01,16.89,7.22,1.27,13.35-6.42,13.35-6.42.3.15,21.74-19.35,5.67-29.18-7.47-4.57-18.17,8.46-18.17,8.46Z"/><path d="M116.4,93.1c-.57,0-1.15-.05-1.74-.15-7.15-1.26-14.09-9.79-19.33-17.09-2.44-3.39-3.16-7.63-1.98-11.64,1.12-3.81,3.84-6.81,7.47-8.24.28-.11.57-.21.85-.3,4.36-1.37,10.12,2.1,12.93,4.75.71.67,1.72,1.75,2.18,2.82,3.31-3.47,11.16-10.53,17.25-6.81,6.85,4.19,8.06,10.75,3.5,18.96-2.04,3.67-7.11,9.86-9.05,10.95h0c-.24.3-5.46,6.75-12.09,6.75ZM103.76,56.38c-.63,0-1.23.08-1.78.25-.26.08-.52.18-.78.28-3.34,1.31-5.84,4.08-6.88,7.59-1.09,3.71-.43,7.64,1.83,10.78,5.14,7.14,11.9,15.49,18.7,16.69,6.86,1.21,12.81-6.16,12.87-6.24l.25-.32.11.05c1.57-1.25,11.12-10.46,11.17-18.96.02-3.78-1.91-6.88-5.73-9.22-5.72-3.5-13.7,4.18-16.5,7.2,0,.06-.02.12-.03.18-.1.39-.39.9-1.24,1.13l-1.51.41.99-1.21c.06-.08.34-.41.79-.91-.11-.62-.74-1.67-2.08-2.93-2.68-2.53-6.83-4.78-10.16-4.78Z"/><path class="cls-2" d="M99.33,62.92c-1.17,1.69-1.72,4.28-.7,4.61s3.21,0,3.21,0l3.21-4.61s-.14-4.73-3.47-2.03c-3.33,2.7-2.24,2.03-2.24,2.03Z"/><path d="M99.93,68.19c-.53,0-1.06-.04-1.46-.18-.25-.08-.59-.29-.77-.82-.35-1.06.17-2.82.93-4.11-.11-.34.32-.71,2.61-2.57,1.09-.88,2.03-1.15,2.8-.79,1.37.63,1.48,2.93,1.49,3.19v.17s-3.42,4.92-3.42,4.92l-.21.03c-.15.02-1.06.16-1.98.16ZM99.96,62.89l-.22.32c-.89,1.29-1.31,3-1.09,3.67.05.16.11.18.13.18.66.22,2.07.1,2.76.01l2.98-4.29c-.05-.6-.27-1.87-.89-2.16-.5-.23-1.23.24-1.75.66-1.04.84-1.61,1.33-1.92,1.6Z"/><rect x="130.39" y="31.92" width="119.42" height="2" transform="translate(12.08 107.28) rotate(-32.49)"/><g class="cls-4"><path d="M38.66,26.27l56.93,34.19s-2.76,4.31-2.54,6.51S38.66,26.27,38.66,26.27Z"/></g><g class="cls-4"><path d="M196.4,28.91l-56.12,35.45c-.21.13-.34.36-.34.61,0,1.27-.24,4.59-.42,6.54-.22,2.34,56.88-42.6,56.88-42.6Z"/></g></svg>