<svg width="346" height="284" viewBox="0 0 346 284" fill="none" xmlns="http://www.w3.org/2000/svg">
<path d="M84.0497 78.1596L339.3 76.3296L339.5 101.94L335.98 275.14C335.98 275.14 336.47 280.42 329.77 280.81C323.06 281.2 16.7697 283.05 16.7697 283.05C16.7697 283.05 9.93973 281.62 9.89973 276.59L8.57973 104.29L2.66973 104.33L2.46973 78.7296L7.00973 78.6996L6.32973 48.9996C6.32973 48.9996 6.23973 46.3996 11.5097 45.9396C16.7797 45.4796 31.6297 45.7996 31.6297 45.7996L332.77 0.30957L338.91 24.9096L69.8897 67.2196L84.0497 78.1596Z" fill="#564E4E"/>
<g filter="url(#filter0_d_197_52)">
<path d="M2.48047 78.7501L339.3 76.3301L339.5 101.94L2.67047 104.34L2.48047 78.7501Z" fill="#564E4E"/>
</g>
<path d="M96.9297 121.35H108.33C110.81 121.35 112.67 121.92 113.91 123.06C115.15 124.2 115.76 125.82 115.76 127.93C115.76 130.04 115.09 131.78 113.74 133C112.39 134.22 110.34 134.83 107.57 134.83H103.82V142.78H96.9297V121.34V121.35ZM103.82 130.49H105.5C106.82 130.49 107.75 130.27 108.29 129.82C108.82 129.38 109.09 128.81 109.09 128.12C109.09 127.43 108.86 126.88 108.39 126.41C107.93 125.94 107.05 125.71 105.77 125.71H103.82V130.49Z" fill="#EADFDF"/>
<path d="M130.35 139.24H122.57L121.49 142.78H114.49L122.83 121.34H130.31L138.65 142.78H131.47L130.36 139.24H130.35ZM128.93 134.61L126.48 126.9L124.06 134.61H128.93Z" fill="#EADFDF"/>
<path d="M139.63 135.69L146.15 135.29C146.29 136.31 146.58 137.09 147.01 137.63C147.72 138.5 148.73 138.93 150.04 138.93C151.02 138.93 151.77 138.71 152.3 138.26C152.83 137.82 153.09 137.3 153.09 136.72C153.09 136.14 152.84 135.67 152.33 135.23C151.83 134.79 150.65 134.38 148.82 133.99C145.81 133.34 143.67 132.47 142.39 131.39C141.1 130.31 140.45 128.93 140.45 127.25C140.45 126.15 140.78 125.11 141.44 124.13C142.1 123.15 143.09 122.38 144.42 121.82C145.75 121.26 147.57 120.98 149.88 120.98C152.72 120.98 154.88 121.49 156.37 122.51C157.86 123.53 158.74 125.15 159.03 127.37L152.57 127.74C152.4 126.77 152.04 126.07 151.49 125.63C150.94 125.19 150.18 124.97 149.21 124.97C148.41 124.97 147.81 125.13 147.41 125.46C147.01 125.79 146.8 126.18 146.8 126.65C146.8 126.99 146.97 127.3 147.3 127.57C147.62 127.85 148.39 128.12 149.6 128.36C152.6 128.98 154.74 129.62 156.04 130.25C157.34 130.89 158.28 131.68 158.87 132.63C159.46 133.58 159.76 134.63 159.76 135.8C159.76 137.17 159.37 138.44 158.58 139.6C157.79 140.76 156.69 141.64 155.28 142.24C153.87 142.84 152.09 143.14 149.94 143.14C146.17 143.14 143.55 142.44 142.1 141.03C140.65 139.63 139.82 137.84 139.63 135.68V135.69Z" fill="#EADFDF"/>
<path d="M162.01 135.69L168.53 135.29C168.67 136.31 168.96 137.09 169.39 137.63C170.1 138.5 171.11 138.93 172.42 138.93C173.4 138.93 174.15 138.71 174.68 138.26C175.21 137.82 175.47 137.3 175.47 136.72C175.47 136.14 175.22 135.67 174.71 135.23C174.21 134.79 173.03 134.38 171.2 133.99C168.19 133.34 166.05 132.47 164.77 131.39C163.48 130.31 162.83 128.93 162.83 127.25C162.83 126.15 163.16 125.11 163.82 124.13C164.48 123.15 165.47 122.38 166.8 121.82C168.13 121.26 169.95 120.98 172.26 120.98C175.1 120.98 177.26 121.49 178.75 122.51C180.24 123.53 181.12 125.15 181.41 127.37L174.95 127.74C174.78 126.77 174.42 126.07 173.87 125.63C173.32 125.19 172.56 124.97 171.59 124.97C170.79 124.97 170.19 125.13 169.79 125.46C169.39 125.79 169.18 126.18 169.18 126.65C169.18 126.99 169.35 127.3 169.68 127.57C170 127.85 170.77 128.12 171.98 128.36C174.98 128.98 177.12 129.62 178.42 130.25C179.72 130.89 180.66 131.68 181.25 132.63C181.84 133.58 182.14 134.63 182.14 135.8C182.14 137.17 181.75 138.44 180.96 139.6C180.17 140.76 179.07 141.64 177.66 142.24C176.25 142.84 174.47 143.14 172.32 143.14C168.55 143.14 165.93 142.44 164.48 141.03C163.03 139.63 162.2 137.84 162.01 135.68V135.69Z" fill="#EADFDF"/>
<path d="M185.86 121.35H192.73V142.79H185.86V121.35Z" fill="#EADFDF"/>
<path d="M196.79 132.08C196.79 128.58 197.8 125.86 199.82 123.91C201.84 121.96 204.65 120.99 208.25 120.99C211.85 120.99 214.79 121.95 216.79 123.86C218.79 125.78 219.79 128.46 219.79 131.91C219.79 134.42 219.35 136.47 218.48 138.07C217.61 139.67 216.35 140.92 214.7 141.81C213.05 142.7 210.99 143.15 208.53 143.15C206.07 143.15 203.96 142.76 202.32 141.99C200.68 141.22 199.35 140 198.33 138.33C197.31 136.66 196.8 134.58 196.8 132.07L196.79 132.08ZM203.65 132.11C203.65 134.27 204.07 135.83 204.9 136.77C205.73 137.72 206.86 138.19 208.3 138.19C209.74 138.19 210.91 137.73 211.72 136.8C212.53 135.87 212.93 134.21 212.93 131.81C212.93 129.79 212.51 128.32 211.67 127.39C210.83 126.46 209.68 125.99 208.24 125.99C206.8 125.99 205.75 126.46 204.91 127.41C204.07 128.36 203.65 129.92 203.65 132.1V132.11Z" fill="#EADFDF"/>
<path d="M223.52 121.35H229.92L238.27 133.21V121.35H244.73V142.79H238.27L229.96 131.02V142.79H223.51V121.35H223.52Z" fill="#EADFDF"/>
<path d="M138.49 77.54H170.99L149.82 103.93H117.46L138.49 77.54Z" fill="#EADFDF"/>
<path d="M193.24 77.1396H225.74L204.57 103.53H172.21L193.24 77.1396Z" fill="#EADFDF"/>
<path d="M247.99 76.3301H280.49L259.32 102.72H226.96L247.99 76.3301Z" fill="#EADFDF"/>
<path d="M301.52 76.3301H334.02L312.85 102.72H280.49L301.52 76.3301Z" fill="#EADFDF"/>
<path d="M131.7 57.4104L163.81 52.5804L138.69 29.6504L106.71 34.4704L131.7 57.4104Z" fill="#EADFDF"/>
<path d="M191.04 48.1702L223.15 43.3302L198.02 20.4102L166.05 25.2302L191.04 48.1702Z" fill="#EADFDF"/>
<path d="M244.35 39.9299L276.46 35.0999L251.34 12.1699L219.36 16.9899L244.35 39.9299Z" fill="#EADFDF"/>
<path d="M297.91 31.5598L330.02 26.7198L304.9 3.7998L272.92 8.61981L297.91 31.5598Z" fill="#EADFDF"/>
<path d="M38.6602 152.71L307.25 153.73" stroke="white" stroke-width="3" stroke-miterlimit="10"/>
<path d="M38.4297 209.05L307.02 210.06" stroke="white" stroke-width="3" stroke-miterlimit="10"/>
<path d="M128.5 154.45V209.56" stroke="white" stroke-width="3" stroke-miterlimit="10"/>
<path d="M219.36 154.45V209.56" stroke="white" stroke-width="3" stroke-miterlimit="10"/>
<path d="M61.54 165L64.09 164.77C64.19 165.06 64.34 165.27 64.53 165.4C64.72 165.53 64.97 165.59 65.29 165.59C65.63 165.59 65.9 165.52 66.09 165.38C66.24 165.28 66.31 165.14 66.31 164.99C66.31 164.81 66.21 164.67 66.02 164.58C65.88 164.51 65.51 164.43 64.92 164.32C64.03 164.17 63.41 164.03 63.06 163.9C62.71 163.77 62.42 163.56 62.18 163.25C61.94 162.95 61.82 162.6 61.82 162.21C61.82 161.78 61.95 161.42 62.2 161.11C62.46 160.8 62.81 160.57 63.26 160.42C63.71 160.27 64.31 160.19 65.07 160.19C65.87 160.19 66.46 160.25 66.84 160.37C67.22 160.49 67.54 160.67 67.79 160.92C68.04 161.17 68.26 161.5 68.42 161.93L65.99 162.16C65.93 161.95 65.82 161.8 65.67 161.7C65.47 161.57 65.22 161.5 64.94 161.5C64.66 161.5 64.44 161.55 64.31 161.65C64.18 161.75 64.11 161.87 64.11 162.01C64.11 162.17 64.19 162.29 64.36 162.37C64.53 162.45 64.89 162.52 65.46 162.59C66.31 162.68 66.95 162.81 67.36 162.98C67.78 163.15 68.09 163.38 68.32 163.69C68.54 164 68.65 164.34 68.65 164.71C68.65 165.08 68.53 165.45 68.3 165.8C68.07 166.15 67.7 166.43 67.2 166.64C66.7 166.85 66.01 166.95 65.15 166.95C63.93 166.95 63.06 166.78 62.54 166.44C62.02 166.1 61.69 165.62 61.54 165Z" fill="#EADFDF"/>
<path d="M74.8803 164.26L77.3203 164.53C77.1903 165.02 76.9703 165.45 76.6603 165.81C76.3503 166.17 75.9603 166.45 75.4803 166.65C75.0003 166.85 74.4003 166.95 73.6603 166.95C72.9203 166.95 72.3603 166.89 71.8803 166.76C71.4103 166.63 71.0003 166.43 70.6603 166.14C70.3203 165.85 70.0503 165.52 69.8603 165.13C69.6703 164.74 69.5703 164.23 69.5703 163.6C69.5703 162.97 69.6903 162.38 69.9203 161.94C70.0903 161.61 70.3303 161.32 70.6303 161.07C70.9303 160.81 71.2403 160.62 71.5503 160.49C72.0503 160.29 72.6903 160.19 73.4703 160.19C74.5603 160.19 75.4003 160.38 75.9703 160.76C76.5403 161.14 76.9503 161.69 77.1803 162.42L74.7603 162.73C74.6803 162.45 74.5503 162.25 74.3503 162.11C74.1503 161.97 73.8803 161.9 73.5503 161.9C73.1303 161.9 72.7803 162.05 72.5203 162.34C72.2603 162.63 72.1303 163.08 72.1303 163.67C72.1303 164.2 72.2603 164.6 72.5203 164.88C72.7803 165.16 73.1103 165.29 73.5203 165.29C73.8603 165.29 74.1403 165.21 74.3703 165.04C74.6003 164.87 74.7703 164.62 74.8803 164.27V164.26Z" fill="#EADFDF"/>
<path d="M85.9404 164.17H80.7904C80.8404 164.57 80.9504 164.87 81.1204 165.06C81.3704 165.34 81.6904 165.48 82.0904 165.48C82.3404 165.48 82.5804 165.42 82.8104 165.3C82.9504 165.22 83.1004 165.09 83.2604 164.89L85.7904 165.11C85.4004 165.76 84.9404 166.23 84.3904 166.51C83.8404 166.79 83.0604 166.93 82.0404 166.93C81.1504 166.93 80.4604 166.81 79.9504 166.57C79.4404 166.33 79.0204 165.94 78.6904 165.42C78.3604 164.89 78.1904 164.28 78.1904 163.57C78.1904 162.56 78.5204 161.74 79.2004 161.11C79.8704 160.48 80.8004 160.17 81.9804 160.17C82.9404 160.17 83.7004 160.31 84.2504 160.59C84.8104 160.87 85.2304 161.28 85.5204 161.81C85.8104 162.34 85.9604 163.03 85.9604 163.89V164.17H85.9404ZM83.3304 162.99C83.2804 162.51 83.1504 162.17 82.9304 161.96C82.7104 161.75 82.4304 161.65 82.0804 161.65C81.6704 161.65 81.3504 161.81 81.1004 162.12C80.9404 162.31 80.8504 162.61 80.8004 162.99H83.3304Z" fill="#EADFDF"/>
<path d="M87.1204 160.32H89.5104V161.37C89.8704 160.94 90.2303 160.63 90.5903 160.45C90.9503 160.27 91.4004 160.17 91.9304 160.17C92.6404 160.17 93.2003 160.37 93.6003 160.78C94.0003 161.19 94.2003 161.82 94.2003 162.67V166.78H91.6204V163.22C91.6204 162.81 91.5404 162.53 91.3904 162.36C91.2304 162.19 91.0204 162.11 90.7304 162.11C90.4204 162.11 90.1704 162.22 89.9704 162.45C89.7804 162.68 89.6804 163.09 89.6804 163.67V166.78H87.1104V160.31L87.1204 160.32Z" fill="#EADFDF"/>
<path d="M103.17 164.17H98.0199C98.0699 164.57 98.1799 164.87 98.3499 165.06C98.5999 165.34 98.9199 165.48 99.3199 165.48C99.5699 165.48 99.8099 165.42 100.04 165.3C100.18 165.22 100.33 165.09 100.49 164.89L103.02 165.11C102.63 165.76 102.17 166.23 101.62 166.51C101.07 166.79 100.29 166.93 99.2699 166.93C98.3799 166.93 97.6899 166.81 97.1799 166.57C96.6699 166.33 96.2499 165.94 95.9199 165.42C95.5899 164.89 95.4199 164.28 95.4199 163.57C95.4199 162.56 95.7499 161.74 96.4299 161.11C97.0999 160.48 98.0299 160.17 99.2099 160.17C100.17 160.17 100.93 160.31 101.48 160.59C102.04 160.87 102.46 161.28 102.75 161.81C103.04 162.34 103.19 163.03 103.19 163.89V164.17H103.17ZM100.56 162.99C100.51 162.51 100.38 162.17 100.16 161.96C99.9399 161.75 99.6599 161.65 99.3099 161.65C98.8999 161.65 98.5799 161.81 98.3299 162.12C98.1699 162.31 98.0799 162.61 98.0299 162.99H100.56Z" fill="#EADFDF"/>
<path d="M163.77 157.86V160.32H165.18V162.14H163.77V164.43C163.77 164.71 163.8 164.89 163.85 164.98C163.93 165.12 164.08 165.19 164.29 165.19C164.48 165.19 164.74 165.14 165.08 165.03L165.27 166.74C164.63 166.87 164.04 166.94 163.49 166.94C162.85 166.94 162.38 166.86 162.08 166.7C161.78 166.54 161.55 166.3 161.41 165.98C161.26 165.66 161.19 165.14 161.19 164.41V162.13H160.24V160.31H161.19V159.12L163.76 157.85L163.77 157.86Z" fill="#EADFDF"/>
<path d="M168.75 162.42L166.3 162.17C166.39 161.76 166.53 161.43 166.7 161.19C166.87 160.95 167.13 160.75 167.45 160.57C167.69 160.45 168.01 160.35 168.42 160.28C168.83 160.21 169.28 160.18 169.76 160.18C170.53 160.18 171.15 160.22 171.61 160.3C172.08 160.38 172.47 160.56 172.78 160.82C173 161 173.17 161.26 173.3 161.6C173.43 161.94 173.49 162.25 173.49 162.56V165.42C173.49 165.72 173.51 165.96 173.55 166.14C173.59 166.32 173.68 166.53 173.81 166.8H171.4C171.3 166.63 171.24 166.51 171.21 166.42C171.18 166.33 171.15 166.2 171.12 166.01C170.78 166.32 170.45 166.55 170.12 166.68C169.67 166.86 169.14 166.95 168.54 166.95C167.74 166.95 167.13 166.77 166.72 166.41C166.31 166.05 166.1 165.61 166.1 165.09C166.1 164.6 166.25 164.19 166.55 163.88C166.85 163.56 167.4 163.33 168.2 163.17C169.16 162.98 169.79 162.85 170.07 162.78C170.36 162.71 170.66 162.61 170.98 162.49C170.98 162.19 170.91 161.97 170.78 161.85C170.65 161.73 170.42 161.67 170.09 161.67C169.67 161.67 169.35 161.73 169.14 161.86C168.98 161.96 168.84 162.15 168.74 162.43L168.75 162.42ZM170.98 163.72C170.63 163.84 170.26 163.95 169.88 164.04C169.36 164.17 169.03 164.31 168.89 164.44C168.75 164.57 168.68 164.73 168.68 164.9C168.68 165.09 168.75 165.25 168.89 165.38C169.03 165.5 169.24 165.57 169.51 165.57C169.78 165.57 170.06 165.5 170.31 165.37C170.56 165.24 170.73 165.07 170.83 164.88C170.93 164.69 170.98 164.44 170.98 164.13V163.73V163.72Z" fill="#EADFDF"/>
<path d="M175.02 157.86H177.64V162.47L179.56 160.32H182.72L180.32 162.59L182.86 166.79H179.97L178.61 164.2L177.64 165.11V166.79H175.02V157.86Z" fill="#EADFDF"/>
<path d="M190.63 164.17H185.48C185.53 164.57 185.64 164.87 185.81 165.06C186.06 165.34 186.38 165.48 186.78 165.48C187.03 165.48 187.27 165.42 187.5 165.3C187.64 165.22 187.79 165.09 187.95 164.89L190.48 165.11C190.09 165.76 189.63 166.23 189.08 166.51C188.53 166.79 187.75 166.93 186.73 166.93C185.84 166.93 185.15 166.81 184.64 166.57C184.13 166.33 183.71 165.94 183.38 165.42C183.05 164.89 182.88 164.28 182.88 163.57C182.88 162.56 183.21 161.74 183.89 161.11C184.56 160.48 185.49 160.17 186.67 160.17C187.63 160.17 188.39 160.31 188.94 160.59C189.49 160.87 189.92 161.28 190.21 161.81C190.5 162.34 190.65 163.03 190.65 163.89V164.17H190.63ZM188.02 162.99C187.97 162.51 187.84 162.17 187.62 161.96C187.4 161.75 187.12 161.65 186.77 161.65C186.36 161.65 186.04 161.81 185.79 162.12C185.63 162.31 185.54 162.61 185.49 162.99H188.02Z" fill="#EADFDF"/>
<path d="M250.98 160.32H253.38V161.38C253.61 160.92 253.85 160.61 254.1 160.43C254.35 160.26 254.65 160.17 255.01 160.17C255.37 160.17 255.8 160.28 256.25 160.51L255.46 162.28C255.16 162.16 254.92 162.1 254.74 162.1C254.4 162.1 254.14 162.23 253.96 162.5C253.7 162.88 253.56 163.58 253.56 164.62V166.79H250.98V160.32Z" fill="#EADFDF"/>
<path d="M256.58 163.58C256.58 162.59 256.92 161.78 257.61 161.14C258.3 160.5 259.23 160.18 260.4 160.18C261.74 160.18 262.75 160.56 263.44 161.31C263.99 161.92 264.27 162.66 264.27 163.55C264.27 164.55 263.93 165.36 263.24 166C262.56 166.64 261.61 166.95 260.41 166.95C259.33 166.95 258.46 166.69 257.8 166.16C256.98 165.51 256.58 164.65 256.58 163.59V163.58ZM259.16 163.57C259.16 164.15 259.28 164.57 259.52 164.85C259.76 165.13 260.07 165.26 260.43 165.26C260.79 165.26 261.1 165.12 261.34 164.85C261.58 164.58 261.7 164.14 261.7 163.54C261.7 162.98 261.58 162.56 261.34 162.29C261.1 162.02 260.8 161.88 260.45 161.88C260.08 161.88 259.77 162.02 259.52 162.3C259.28 162.58 259.15 163 259.15 163.57H259.16Z" fill="#EADFDF"/>
<path d="M265.6 157.86H268.17V166.79H265.6V157.86Z" fill="#EADFDF"/>
<path d="M269.9 157.86H272.47V166.79H269.9V157.86Z" fill="#EADFDF"/>
<defs>
<filter id="filter0_d_197_52" x="0.480469" y="74.3301" width="345.02" height="36.0098" filterUnits="userSpaceOnUse" color-interpolation-filters="sRGB">
<feFlood flood-opacity="0" result="BackgroundImageFix"/>
<feColorMatrix in="SourceAlpha" type="matrix" values="0 0 0 0 0 0 0 0 0 0 0 0 0 0 0 0 0 0 127 0" result="hardAlpha"/>
<feOffset dx="2" dy="2"/>
<feGaussianBlur stdDeviation="2"/>
<feColorMatrix type="matrix" values="0 0 0 0 0 0 0 0 0 0 0 0 0 0 0 0 0 0 0.8 0"/>
<feBlend mode="normal" in2="BackgroundImageFix" result="effect1_dropShadow_197_52"/>
<feBlend mode="normal" in="SourceGraphic" in2="effect1_dropShadow_197_52" result="shape"/>
</filter>
</defs>
</svg>
