<?xml version="1.0" encoding="UTF-8"?><svg id="Layer_1" xmlns="http://www.w3.org/2000/svg" viewBox="0 0 750.54 204.78"><defs><style>.cls-1{fill:none;}.cls-2{fill:#333;}</style></defs><path class="cls-1" d="M147.92,20.01c-61.21,24.85-72.25,42.45-71.6,53.72,2.45,42.17,173.11,73.02,321.08,65.04,147.59-7.96,310.78-56.62,308.85-93.95-.63-12.32-19.53-28.81-106.34-44.82"/><path class="cls-2" d="M99.46,82.76c.01-.85-.4-1.6-1.25-2.24-.57-.44-1.18-.69-1.82-.76-.64-.07-1.27.04-1.89.35-.62.3-1.18.78-1.67,1.43l-6.69,8.8-3.1-2.36,10.99-14.46,3.1,2.36-1.7,2.23c1.07-.54,2.1-.77,3.08-.69.98.08,1.93.47,2.85,1.17,1.49,1.13,2.25,2.5,2.28,4.09.03,1.59-.62,3.26-1.94,5l-6.97,9.18-3.19-2.42,6.69-8.8c.81-1.07,1.22-2.03,1.24-2.88Z"/><path class="cls-2" d="M102.45,110.41l-3.77-1.72,8.42-8.05.57-17.35,4.07,1.85-1.13,15.28-1.62-.87,10.63-10.82,3.81,1.73-20.97,19.96Z"/><path class="cls-2" d="M123.22,104.94c.36.61.76,1.12,1.21,1.51.45.4.93.69,1.45.87.66.23,1.23.25,1.72.06.49-.19.83-.57,1.03-1.14.17-.5.18-.98.01-1.44-.17-.46-.47-.92-.9-1.36-.43-.44-.95-.93-1.55-1.45-.6-.55-1.17-1.15-1.72-1.8-.55-.65-.92-1.39-1.13-2.22-.21-.83-.13-1.75.23-2.77.37-1.04.92-1.82,1.65-2.35.73-.52,1.57-.81,2.52-.85.95-.04,1.89.1,2.85.44.86.3,1.62.73,2.29,1.27.66.54,1.22,1.14,1.68,1.81.45.66.8,1.36,1.03,2.08l-2.88,1.66c-.29-.85-.72-1.62-1.29-2.3-.58-.68-1.25-1.15-2.02-1.43-.52-.18-1-.21-1.42-.08-.43.13-.72.43-.89.9-.14.4-.11.81.08,1.22.2.42.51.84.93,1.27.42.43.9.89,1.44,1.39.73.68,1.38,1.37,1.95,2.07.57.7.96,1.46,1.17,2.26.21.8.14,1.72-.23,2.77-.57,1.61-1.53,2.73-2.89,3.36-1.35.62-2.89.63-4.62.02-1.07-.38-1.98-.9-2.75-1.58-.77-.68-1.38-1.42-1.85-2.24-.46-.82-.81-1.63-1.03-2.44l2.97-1.59c.29.77.61,1.46.97,2.08Z"/><path class="cls-2" d="M137.5,115.53c-.2.79-.2,1.56,0,2.3.2.74.59,1.38,1.16,1.93.57.54,1.29.94,2.17,1.19.79.22,1.59.23,2.43.03.83-.2,1.59-.66,2.28-1.36.69-.71,1.22-1.72,1.59-3.04l4.86-17.09,3.68,1.04-4.86,17.09c-.6,2.1-1.48,3.73-2.64,4.87-1.16,1.15-2.46,1.88-3.9,2.19-1.44.32-2.89.27-4.34-.15-1.73-.49-3.12-1.24-4.16-2.23-1.04-.99-1.73-2.17-2.06-3.52-.33-1.35-.3-2.79.09-4.33l3.71,1.05ZM138.79,99.78c1.09-1.13,2.34-1.87,3.73-2.24,1.39-.37,2.77-.36,4.14.03,1.34.38,2.41,1.08,3.21,2.08.8,1.01,1.31,2.27,1.51,3.78.21,1.51.04,3.21-.5,5.11-.53,1.87-1.28,3.4-2.26,4.57-.97,1.17-2.06,1.98-3.27,2.41-1.21.44-2.49.46-3.83.08-1.36-.39-2.54-1.11-3.53-2.15-.99-1.05-1.65-2.34-1.99-3.89-.34-1.55-.23-3.27.31-5.17.55-1.95,1.38-3.49,2.47-4.61ZM140.02,108.65c.21.94.62,1.71,1.23,2.34.61.62,1.34,1.06,2.2,1.3.72.2,1.49.2,2.31,0,.82-.2,1.57-.65,2.26-1.35.68-.69,1.19-1.62,1.52-2.79.26-.91.35-1.74.28-2.49-.08-.75-.27-1.42-.57-2.01-.31-.59-.7-1.08-1.18-1.46-.48-.38-.98-.65-1.52-.8-.86-.24-1.71-.26-2.55-.05-.85.21-1.61.66-2.27,1.34-.67.69-1.17,1.62-1.51,2.81-.33,1.16-.39,2.21-.18,3.15Z"/><path class="cls-2" d="M159.09,119.23c-1.08-1.06-1.79-2.36-2.15-3.9-.36-1.54-.32-3.24.1-5.08.43-1.87,1.16-3.42,2.17-4.64,1.01-1.22,2.24-2.07,3.68-2.53,1.44-.46,3.01-.5,4.72-.1,1.71.4,3.08,1.09,4.11,2.09,1.03,1,1.71,2.24,2.04,3.74.33,1.5.28,3.19-.16,5.09-.05.21-.1.42-.17.65-.07.23-.12.39-.17.49l-14.19-3.29.66-2.85,10.96,2.54-1.57,1.5c.11-.14.23-.33.38-.58.14-.25.24-.46.28-.64.22-.95.24-1.81.06-2.58-.18-.77-.52-1.42-1.03-1.94s-1.16-.88-1.96-1.06c-.96-.22-1.83-.18-2.62.12-.79.3-1.46.85-2.01,1.64-.55.79-.99,1.82-1.31,3.1-.3,1.28-.37,2.41-.23,3.37.15.97.51,1.76,1.09,2.38.58.62,1.37,1.05,2.35,1.27,1.03.24,1.99.22,2.87-.07.88-.28,1.69-.84,2.42-1.67l2.93,2.22c-1.21,1.39-2.58,2.33-4.1,2.82-1.52.49-3.22.51-5.09.08-1.64-.38-3-1.1-4.07-2.16Z"/><path class="cls-2" d="M179.46,124.5l-3.78-.75,3.55-17.81,3.78.75-3.55,17.81ZM186.12,111.21c-.28-.22-.65-.37-1.12-.46-.64-.13-1.19-.05-1.66.23-.47.28-.86.72-1.16,1.32-.3.6-.54,1.32-.71,2.17l-1.11-1.07c.28-1.42.78-2.63,1.48-3.63.7-1,1.5-1.75,2.4-2.24.89-.49,1.75-.66,2.58-.49.59.12,1.12.33,1.6.62.48.3.85.73,1.1,1.29l-2.54,3.16c-.29-.38-.58-.68-.85-.89Z"/><path class="cls-2" d="M192.91,127.03l-3.8-.67,3.17-17.88,3.8.67-3.17,17.88ZM199.28,113.61c-.28-.21-.66-.36-1.13-.44-.64-.11-1.19-.02-1.66.27-.47.29-.84.74-1.13,1.34-.29.6-.51,1.33-.66,2.19l-1.13-1.04c.25-1.42.72-2.65,1.4-3.66.68-1.02,1.46-1.78,2.35-2.29.88-.51,1.74-.69,2.57-.55.59.1,1.13.3,1.62.59.49.29.86.71,1.13,1.26l-2.47,3.21c-.3-.37-.59-.67-.87-.88Z"/><path class="cls-2" d="M205.97,129.22l-3.81-.6,2.83-17.94,3.81.6-2.83,17.94ZM212.09,115.68c-.28-.2-.66-.34-1.14-.42-.64-.1-1.19,0-1.65.3-.46.3-.83.75-1.11,1.36-.28.61-.49,1.34-.62,2.2l-1.15-1.02c.23-1.43.67-2.66,1.33-3.69.66-1.03,1.43-1.81,2.3-2.33.87-.53,1.73-.73,2.56-.6.59.09,1.14.28,1.63.56s.88.69,1.15,1.24l-2.41,3.26c-.31-.37-.6-.65-.89-.86Z"/><path class="cls-2" d="M222,113.25l-2.56,17.98-3.78-.54,2.56-17.98,3.78.54ZM219.69,103.75c.56-.43,1.16-.59,1.8-.5.69.1,1.23.43,1.63.99.39.56.54,1.21.43,1.94-.1.7-.42,1.28-.95,1.72-.54.44-1.15.61-1.84.52-.64-.09-1.17-.43-1.59-1-.42-.58-.57-1.22-.47-1.92.1-.73.43-1.31.99-1.73Z"/><path class="cls-2" d="M227.38,133.55c-.08.81.04,1.57.35,2.27.31.7.79,1.28,1.44,1.73.65.45,1.42.73,2.33.84.81.1,1.61-.01,2.4-.34.79-.33,1.47-.89,2.04-1.7s.94-1.89,1.11-3.24l2.18-17.63,3.79.47-2.18,17.63c-.27,2.17-.89,3.91-1.86,5.22-.97,1.31-2.15,2.23-3.52,2.77-1.37.53-2.81.71-4.31.52-1.79-.22-3.28-.74-4.46-1.56-1.18-.82-2.04-1.88-2.57-3.16s-.72-2.71-.58-4.29l3.83.47ZM226.24,117.79c.91-1.28,2.02-2.21,3.34-2.79,1.32-.58,2.68-.78,4.09-.61,1.38.17,2.55.69,3.49,1.57.95.87,1.64,2.04,2.07,3.5.44,1.46.53,3.17.29,5.13-.24,1.93-.75,3.55-1.53,4.86-.78,1.31-1.73,2.27-2.86,2.89-1.13.62-2.39.84-3.77.67-1.41-.17-2.68-.7-3.82-1.59-1.14-.88-1.99-2.06-2.56-3.54-.57-1.48-.73-3.19-.49-5.15.25-2.01.83-3.66,1.74-4.94ZM228.81,126.37c.35.89.87,1.6,1.57,2.12.7.52,1.49.84,2.37.95.74.09,1.5-.03,2.28-.36.78-.33,1.45-.89,2.02-1.68s.93-1.79,1.08-2.99c.12-.94.08-1.77-.11-2.5-.19-.73-.48-1.36-.87-1.9-.39-.54-.86-.96-1.39-1.27-.53-.3-1.07-.49-1.62-.56-.88-.11-1.73,0-2.53.34-.8.34-1.49.9-2.04,1.68s-.91,1.78-1.06,3.01c-.15,1.2-.05,2.25.3,3.14Z"/><path class="cls-2" d="M255.24,144.23l2.35-26.74,3.92.34-2.35,26.74-3.92-.34ZM272.83,133.11c-.87,1.36-1.95,2.37-3.23,3.01-1.29.64-2.65.9-4.09.77-1.41-.12-2.61-.62-3.58-1.48-.97-.86-1.68-2.04-2.12-3.52-.44-1.48-.57-3.19-.4-5.13.17-1.97.6-3.63,1.29-5,.69-1.37,1.59-2.39,2.7-3.07,1.11-.68,2.37-.96,3.78-.84,1.44.13,2.73.62,3.89,1.47,1.16.85,2.04,2.02,2.66,3.5.62,1.48.84,3.23.66,5.25-.18,1.99-.7,3.67-1.56,5.03ZM269.96,124.57c-.38-.89-.93-1.59-1.64-2.09-.72-.5-1.53-.79-2.44-.87-.74-.06-1.49.09-2.25.46-.76.37-1.41.95-1.95,1.75-.54.8-.87,1.81-.97,3.05s.03,2.29.43,3.17c.39.88.93,1.57,1.61,2.06.68.5,1.39.78,2.13.84.91.08,1.76-.06,2.55-.43.79-.37,1.45-.96,1.98-1.77.53-.81.85-1.82.95-3.03s-.03-2.26-.41-3.15Z"/><path class="cls-2" d="M280.23,133.58c.21.38.54.69.99.92.44.23.99.36,1.64.41.84.06,1.6-.04,2.3-.28.69-.24,1.25-.67,1.68-1.27.43-.6.67-1.43.75-2.48l.44,2.09c-.08,1.16-.42,2.13-1.03,2.92-.61.79-1.39,1.37-2.36,1.74-.96.37-2.02.52-3.17.44-1.15-.08-2.15-.36-3-.85-.85-.49-1.48-1.15-1.91-1.99-.43-.83-.6-1.8-.53-2.9.09-1.37.47-2.48,1.15-3.35.67-.86,1.56-1.5,2.68-1.9,1.11-.4,2.34-.55,3.68-.46.96.06,1.81.25,2.55.57.74.31,1.35.66,1.83,1.03.48.38.81.7.98.98l-.15,2.25c-.7-.65-1.43-1.15-2.18-1.47-.75-.33-1.63-.53-2.63-.59-.82-.06-1.51.02-2.09.23-.58.21-1.02.54-1.33.98s-.48.98-.52,1.61c-.04.55.05,1.02.27,1.4ZM278.3,120.98c.78-.45,1.76-.87,2.94-1.27,1.18-.4,2.52-.54,4.01-.44,1.37.09,2.55.4,3.55.91,1,.52,1.77,1.21,2.3,2.07.53.87.76,1.9.68,3.11l-.87,12.92-3.81-.26.84-12.45c.06-.84-.22-1.51-.82-2.01-.61-.5-1.36-.78-2.27-.85-.79-.05-1.53,0-2.22.17-.69.17-1.28.37-1.79.61-.51.24-.9.45-1.18.61l-1.34-3.14ZM283.1,109.49c.85-.72,1.81-1.05,2.87-.97,1.06.07,1.96.52,2.71,1.35.75.83,1.08,1.87,1,3.13-.08,1.23-.55,2.21-1.41,2.93-.86.72-1.81,1.04-2.87.97-1.06-.07-1.96-.52-2.71-1.35-.75-.83-1.09-1.86-1-3.1.08-1.26.55-2.25,1.41-2.97ZM284.36,114.11c.34.37.73.56,1.19.59.46.03.88-.11,1.26-.43.38-.32.59-.79.64-1.42.04-.63-.1-1.13-.44-1.51-.34-.38-.73-.58-1.19-.61-.46-.03-.88.12-1.26.45-.38.33-.6.81-.64,1.44-.04.63.1,1.13.44,1.49Z"/><path class="cls-2" d="M329.78,139.9l-3.89-.13.36-11.05c.04-1.37-.15-2.39-.57-3.08-.42-.69-1.12-1.04-2.08-1.08-.65-.02-1.23.12-1.73.42-.5.3-.9.75-1.2,1.34-.3.6-.46,1.33-.49,2.2l-.36,11.05-3.89-.13.36-11.05c.04-1.37-.15-2.39-.57-3.08-.42-.69-1.12-1.04-2.08-1.07-.67-.02-1.26.12-1.76.42-.5.3-.9.75-1.18,1.34-.28.6-.44,1.33-.47,2.2l-.36,11.05-3.82-.12.59-18.15,3.82.12-.09,2.64c.51-.98,1.17-1.72,1.97-2.21.8-.49,1.72-.71,2.78-.68,1.23.04,2.23.35,3.02.93.79.58,1.34,1.4,1.67,2.46.61-1.03,1.36-1.81,2.26-2.34.89-.52,1.91-.77,3.04-.73,1.18.04,2.15.34,2.91.9.76.56,1.32,1.38,1.67,2.44.35,1.07.5,2.35.45,3.85l-.38,11.52Z"/><path class="cls-2" d="M335.56,112.69c.5-.49,1.07-.74,1.72-.73.7,0,1.28.27,1.74.77.46.51.69,1.13.68,1.86,0,.71-.25,1.32-.73,1.83-.48.51-1.06.76-1.76.75-.65,0-1.22-.27-1.7-.79-.49-.52-.72-1.13-.72-1.85,0-.74.26-1.35.76-1.85ZM339.07,121.82l-.24,18.16-3.82-.05.24-18.16,3.82.05Z"/><path class="cls-2" d="M353.98,125.93c-.51-.68-1.29-1.02-2.35-1.02-.72,0-1.36.17-1.91.5-.55.33-.98.81-1.3,1.42-.31.62-.47,1.34-.46,2.15l.02,11.05h-3.89s-.04-18.15-.04-18.15h3.89s0,2.79,0,2.79c.53-1.08,1.2-1.88,2.03-2.41.83-.53,1.82-.79,2.97-.8,1.88,0,3.31.62,4.29,1.87.99,1.25,1.48,2.96,1.49,5.15l.02,11.53h-4s-.02-11.05-.02-11.05c0-1.34-.26-2.35-.76-3.04Z"/><path class="cls-2" d="M366.34,139.1c-1.3-.76-2.32-1.84-3.05-3.25-.73-1.4-1.12-3.05-1.16-4.95-.04-1.92.27-3.6.95-5.04.68-1.44,1.65-2.56,2.93-3.37,1.28-.81,2.8-1.23,4.55-1.27,1.75-.04,3.25.29,4.5,1,1.24.71,2.21,1.75,2.9,3.11.69,1.37,1.06,3.02,1.11,4.97,0,.21,0,.43,0,.67,0,.24-.02.41-.04.51l-14.56.34-.07-2.92,11.25-.26-1.15,1.84c.07-.16.14-.38.22-.66.08-.28.11-.51.11-.69-.02-.97-.22-1.81-.58-2.51-.37-.7-.86-1.24-1.48-1.62-.62-.38-1.34-.56-2.16-.54-.99.02-1.82.28-2.51.77-.69.49-1.2,1.19-1.54,2.09-.34.9-.51,2.01-.5,3.33.03,1.32.24,2.42.62,3.32.38.9.93,1.58,1.65,2.04.72.46,1.58.67,2.59.65,1.06-.02,1.98-.28,2.76-.77.78-.49,1.43-1.23,1.93-2.22l3.39,1.42c-.83,1.65-1.92,2.9-3.27,3.75-1.35.85-2.99,1.29-4.91,1.34-1.68.04-3.18-.32-4.48-1.08Z"/><path class="cls-2" d="M394.2,147.67l-1.59-26.8,3.92-.23,1.59,26.8-3.92.23ZM409.97,134.1c-.66,1.48-1.58,2.62-2.76,3.45s-2.49,1.28-3.93,1.36c-1.42.08-2.67-.23-3.76-.94-1.09-.71-1.96-1.77-2.61-3.17-.65-1.4-1.03-3.07-1.15-5.01-.12-1.97.06-3.68.54-5.13s1.22-2.6,2.22-3.43c1-.84,2.2-1.3,3.62-1.38,1.44-.09,2.79.21,4.06.89s2.32,1.7,3.15,3.08c.83,1.37,1.3,3.07,1.42,5.1.12,2-.15,3.73-.81,5.21ZM405.88,126.08c-.51-.83-1.15-1.43-1.93-1.82-.78-.39-1.63-.56-2.54-.5-.74.04-1.46.3-2.16.78-.69.48-1.25,1.15-1.67,2.02-.42.87-.59,1.92-.52,3.16s.37,2.26.89,3.07c.52.81,1.15,1.42,1.9,1.81.75.39,1.49.56,2.23.52.91-.05,1.73-.32,2.46-.8.73-.48,1.3-1.16,1.7-2.04s.57-1.93.5-3.13-.36-2.23-.87-3.05Z"/><path class="cls-2" d="M418.73,137.35l-3.85.3-1.44-18.1,3.85-.3,1.44,18.1ZM421.51,122.75c-.32-.13-.72-.18-1.2-.14-.65.05-1.16.28-1.54.68-.38.4-.63.93-.76,1.58-.13.66-.16,1.42-.09,2.28l-1.36-.72c-.11-1.44.03-2.74.43-3.9.4-1.15.97-2.09,1.69-2.81s1.51-1.11,2.35-1.18c.6-.05,1.17,0,1.71.16.54.16,1.01.47,1.41.94l-1.58,3.73c-.38-.29-.74-.5-1.06-.63Z"/><path class="cls-2" d="M426.09,122.7c.64-1.49,1.59-2.7,2.85-3.63,1.26-.93,2.74-1.48,4.44-1.64,1.7-.17,3.25.09,4.66.76,1.41.67,2.57,1.67,3.5,3.01.93,1.34,1.48,2.94,1.66,4.8.18,1.83-.06,3.5-.71,5.01-.65,1.51-1.6,2.72-2.85,3.65-1.25.93-2.72,1.48-4.42,1.64-1.7.17-3.26-.09-4.67-.75-1.42-.67-2.59-1.68-3.5-3.03-.92-1.35-1.46-2.94-1.64-4.78-.18-1.86.05-3.54.69-5.03ZM430.32,130.24c.51.81,1.17,1.42,1.95,1.83.79.41,1.65.57,2.58.48.91-.09,1.72-.41,2.42-.97.71-.56,1.23-1.28,1.58-2.18.35-.89.47-1.9.36-3.03s-.42-2.1-.94-2.92-1.17-1.43-1.97-1.83c-.8-.4-1.65-.55-2.56-.46-.93.09-1.75.41-2.44.95-.7.54-1.22,1.27-1.56,2.18-.35.91-.46,1.92-.36,3.05.11,1.13.42,2.09.93,2.9Z"/><path class="cls-2" d="M445.58,139.53c.31.15.65.21,1.03.16.38-.04.69-.19.91-.44.23-.25.38-.62.46-1.1.08-.49.08-1.1,0-1.83l-2.23-19.77,3.8-.43,2.33,20.6c.15,1.31.07,2.46-.23,3.46-.3,1-.82,1.8-1.56,2.4-.74.6-1.7.97-2.87,1.1-.6.07-1.13.05-1.6-.04-.47-.09-.89-.26-1.27-.49-.38-.24-.71-.5-1.01-.78l1.46-3.5c.23.29.49.51.8.66ZM444.79,107.53c.42-.54.97-.84,1.64-.92s1.26.1,1.78.53c.52.43.82,1.01.91,1.75.08.71-.08,1.33-.5,1.88-.41.55-.95.86-1.62.94-.67.08-1.27-.11-1.8-.55s-.84-1.02-.92-1.72c-.08-.73.09-1.37.51-1.9Z"/><path class="cls-2" d="M459.45,132.44c-1.38-.62-2.5-1.59-3.37-2.91-.87-1.32-1.43-2.92-1.67-4.8-.24-1.91-.1-3.61.42-5.11.52-1.5,1.38-2.72,2.57-3.65,1.19-.94,2.65-1.51,4.39-1.74,1.74-.22,3.27-.05,4.58.53,1.31.58,2.38,1.51,3.21,2.79.83,1.29,1.37,2.9,1.62,4.83.03.21.05.43.07.67.02.24.02.41.01.52l-14.45,1.85-.37-2.9,11.16-1.43-.95,1.95c.05-.17.1-.39.15-.68.05-.28.06-.52.04-.7-.12-.97-.4-1.78-.84-2.44-.44-.66-.98-1.15-1.64-1.46-.66-.31-1.39-.42-2.2-.31-.98.12-1.78.47-2.41,1.02-.63.56-1.07,1.31-1.31,2.24-.24.93-.3,2.05-.15,3.36.17,1.31.49,2.39.96,3.24s1.09,1.47,1.85,1.85c.76.38,1.65.51,2.65.38,1.05-.13,1.94-.49,2.66-1.06.73-.57,1.29-1.37,1.69-2.41l3.52,1.06c-.65,1.73-1.6,3.08-2.86,4.07-1.26.98-2.84,1.6-4.75,1.84-1.67.21-3.19.01-4.57-.61Z"/><path class="cls-2" d="M475.09,100.07l4.48,30.47-3.78.56-4.48-30.47,3.78-.56ZM487.67,110.99l-5.97,8.46,9.33,9.4-4.67.69-9.4-9.39,6.01-8.46,4.71-.69Z"/><path class="cls-2" d="M497.61,109.37l.6,3.7-9.29,1.5-.6-3.7,9.29-1.5ZM493.87,103.57l3.89,24.17-3.81.61-3.89-24.17,3.81-.61Z"/><path class="cls-2" d="M505.62,125.64c-1.4-.55-2.57-1.47-3.5-2.75-.93-1.28-1.56-2.85-1.89-4.72-.33-1.89-.27-3.6.18-5.12.45-1.52,1.25-2.78,2.39-3.77,1.14-.99,2.58-1.64,4.31-1.94,1.73-.3,3.26-.2,4.6.31,1.33.51,2.45,1.39,3.34,2.64.89,1.25,1.5,2.83,1.84,4.75.04.21.07.43.1.66.03.24.04.41.04.51l-14.35,2.52-.51-2.88,11.08-1.95-.86,1.99c.04-.17.08-.4.12-.68.03-.29.04-.52,0-.7-.17-.96-.49-1.76-.95-2.4-.47-.64-1.04-1.1-1.71-1.38-.67-.28-1.41-.35-2.22-.21-.97.17-1.76.55-2.36,1.14-.6.59-1.01,1.35-1.21,2.3-.2.94-.2,2.07,0,3.37.23,1.3.6,2.36,1.11,3.19.51.83,1.16,1.42,1.94,1.76.78.34,1.67.43,2.66.25,1.04-.18,1.91-.58,2.61-1.18.7-.6,1.22-1.43,1.58-2.48l3.56.9c-.57,1.76-1.46,3.16-2.67,4.2-1.21,1.04-2.76,1.73-4.65,2.06-1.66.29-3.19.16-4.59-.4Z"/><path class="cls-2" d="M525.8,122.76l-3.79.73-3.44-17.83,3.79-.73,3.44,17.83ZM526.94,107.94c-.34-.1-.74-.1-1.21,0-.64.12-1.12.4-1.45.84-.33.44-.53.99-.58,1.66-.05.67,0,1.43.17,2.28l-1.43-.57c-.28-1.42-.28-2.73,0-3.92.27-1.19.73-2.18,1.37-2.98.64-.79,1.38-1.27,2.2-1.43.59-.11,1.16-.12,1.72-.03s1.06.35,1.51.77l-1.16,3.88c-.41-.24-.79-.41-1.13-.51Z"/><path class="cls-2" d="M542.13,96.7c-.53-.59-1.18-.99-1.95-1.2-.77-.21-1.65-.22-2.64,0-1.13.24-2.08.74-2.85,1.51-.77.77-1.34,1.73-1.71,2.88l-3.31-1.68c.46-1.09.99-2.07,1.61-2.94.61-.87,1.39-1.61,2.33-2.21.94-.6,2.11-1.05,3.49-1.35,1.13-.24,2.23-.26,3.3-.07,1.07.19,2.07.57,2.99,1.14.92.57,1.7,1.32,2.33,2.23.64.91,1.08,1.99,1.35,3.23.32,1.49.24,2.91-.22,4.24-.47,1.34-1.19,2.49-2.16,3.46-.97.97-2.11,1.66-3.4,2.07l.66,4.14-3,.64-2.15-6.69,1.02-.22c1.41-.3,2.55-.83,3.4-1.59s1.45-1.61,1.78-2.56c.33-.94.4-1.84.22-2.69-.21-.98-.58-1.76-1.11-2.35ZM539.48,116.21c.38-.6.91-.98,1.59-1.12.73-.15,1.38-.03,1.96.37.58.4.94.96,1.09,1.69.14.67.03,1.31-.33,1.93-.36.61-.91,1-1.63,1.15-.68.15-1.32.01-1.91-.4-.59-.41-.96-.95-1.1-1.62-.15-.72-.04-1.38.33-1.99Z"/><path class="cls-2" d="M562.1,83.35l7.41,29.89-3.71.92-7.41-29.89,3.71-.92ZM575.68,93.01l-5.13,9,10.19,8.46-4.58,1.14-10.26-8.44,5.16-9.01,4.62-1.15Z"/><path class="cls-2" d="M579,79.02l7.9,29.76-3.76,1-7.9-29.76,3.76-1Z"/><path class="cls-2" d="M584.88,81.11c.34-.61.82-1.01,1.45-1.18.67-.19,1.3-.1,1.89.25.59.36.98.89,1.18,1.6.19.68.13,1.34-.18,1.96-.31.62-.81,1.02-1.48,1.21-.62.17-1.24.08-1.86-.28-.61-.36-1.01-.89-1.21-1.57-.2-.71-.13-1.37.21-1.99ZM590.81,88.88l4.88,17.49-3.68,1.03-4.88-17.49,3.68-1.03Z"/><path class="cls-2" d="M595.58,74.36l8.87,29.49-3.66,1.1-8.87-29.49,3.66-1.1ZM609.61,83.33l-4.68,9.24,10.6,7.95-4.52,1.36-10.67-7.92,4.71-9.25,4.56-1.37Z"/><path class="cls-2" d="M632.84,94.67l-3.66,1.33-10.5-28.95,3.66-1.33,10.5,28.95ZM633.72,79.36c-.7-.48-1.55-.53-2.57-.16-.68.25-1.22.62-1.62,1.13-.4.51-.65,1.1-.74,1.78-.09.68,0,1.4.29,2.16l-.88.32c-.49-1.36-.71-2.66-.64-3.88.07-1.23.39-2.31.99-3.26.59-.94,1.47-1.63,2.65-2.05,1.15-.42,2.22-.52,3.2-.32.98.2,1.85.72,2.61,1.55.76.83,1.41,1.97,1.94,3.43l3.97,10.95-3.69,1.34-3.77-10.39c-.46-1.26-1.03-2.13-1.73-2.61Z"/><path class="cls-2" d="M650.6,87.1c-1.49-.23-2.84-.86-4.03-1.89-1.2-1.04-2.16-2.43-2.9-4.17-.75-1.77-1.08-3.45-.98-5.03s.59-2.99,1.49-4.21c.89-1.22,2.15-2.17,3.76-2.86,1.62-.68,3.13-.93,4.55-.73,1.42.2,2.7.81,3.85,1.82s2.1,2.42,2.86,4.21c.08.19.16.4.25.62s.13.39.15.49l-13.41,5.68-1.14-2.69,10.36-4.39-.39,2.14c0-.17,0-.4-.04-.69-.03-.29-.08-.52-.15-.69-.38-.9-.87-1.6-1.47-2.12-.6-.52-1.26-.84-1.97-.96-.72-.12-1.45-.03-2.21.29-.91.39-1.59.93-2.05,1.64-.46.71-.68,1.55-.66,2.51.02.96.27,2.06.76,3.28.51,1.21,1.11,2.17,1.8,2.86.69.7,1.45,1.12,2.29,1.28s1.72.04,2.65-.35c.97-.41,1.73-.99,2.28-1.74.54-.75.87-1.67.98-2.77l3.67.07c-.16,1.84-.71,3.4-1.66,4.69-.94,1.29-2.3,2.3-4.07,3.05-1.55.66-3.07.87-4.56.65Z"/><path class="cls-2" d="M670.63,78.91l-3.44,1.74-8.18-16.22,3.45-1.74,8.18,16.22ZM667.69,64.34c-.35,0-.74.11-1.17.32-.58.29-.97.69-1.17,1.21-.2.51-.23,1.1-.11,1.76.13.66.39,1.37.78,2.15l-1.53-.16c-.65-1.29-1.01-2.55-1.07-3.77-.06-1.22.1-2.3.51-3.24.4-.94.98-1.6,1.73-1.98.54-.27,1.08-.44,1.65-.5.56-.06,1.12.05,1.66.33l-.06,4.05c-.46-.12-.87-.18-1.22-.18Z"/><path class="cls-2" d="M670.67,47.25l9.26,16.92-2.62,1.6-10.8-15.98,4.16-2.54ZM679.45,69.78c.16-.68.55-1.21,1.16-1.59.62-.38,1.26-.48,1.93-.3.67.18,1.21.59,1.6,1.24.4.65.52,1.32.38,2.01s-.52,1.22-1.14,1.6c-.62.38-1.27.47-1.96.29-.69-.18-1.23-.6-1.63-1.25-.4-.65-.52-1.32-.36-2Z"/></svg>