<?xml version="1.0" encoding="UTF-8"?><svg id="Layer_1" xmlns="http://www.w3.org/2000/svg" viewBox="0 0 97.07 66.46"><defs><style>.cls-1{fill:#4d4d4d;}</style></defs><path class="cls-1" d="M90.72,0c.03,6.17-2.36,12.2-6.17,17.32-1.9,2.57-4.12,4.95-6.54,7.13-2.44,2.18-5.1,4.14-7.86,5.96-2.76,1.83-5.7,3.41-8.68,4.92-3.01,1.46-6.07,2.81-9.22,3.99-6.27,2.4-12.8,4.19-19.41,5.6-1.65.38-3.32.63-4.98.96l-1.66.27-2.03.32c-1.35.23-2.72.37-4.08.55-1.36.19-2.72.31-4.09.44-1.36.15-2.73.26-4.1.34,3.85-4.49,7.36-9.16,10.5-13.9-2.66.4-5.34.72-8.04.97-4.28,5.7-9.09,11.24-14.38,16.54,5.29,5.27,11.06,10.32,17.31,15.06,3.26-.3,6.52-.69,9.78-1.18-5.23-3.51-10.13-7.22-14.73-11.16,1.42-.09,2.84-.2,4.26-.35,1.42-.14,2.84-.27,4.25-.46,1.41-.19,2.83-.33,4.24-.57l2.11-.33,1.73-.28c1.73-.34,3.47-.61,5.19-1,6.9-1.46,13.73-3.34,20.36-5.87,3.32-1.24,6.58-2.68,9.78-4.23,3.18-1.61,6.33-3.31,9.33-5.29,3-1.98,5.91-4.12,8.63-6.55,2.7-2.44,5.22-5.12,7.43-8.11,2.2-2.98,4.07-6.28,5.37-9.85,1.31-3.56,2.03-7.39,2.02-11.23h-6.35Z"/></svg>